<svg width="136" height="26" viewBox="0 0 136 26" fill="none" xmlns="http://www.w3.org/2000/svg">
<g clip-path="url(#clip0_1299_31)">
<path d="M43.2728 22.4081C44.1082 23.2434 45.0893 23.9099 46.1838 24.3727C47.2969 24.854 48.5024 25.0946 49.7057 25.0946C50.8558 25.1131 51.9873 24.9095 53.0425 24.5023C54.1 24.095 55.0626 23.4818 55.8979 22.7228C56.4463 22.2739 57.402 21.3714 58.0823 19.9182C58.8182 18.3447 58.8575 16.9216 58.8274 16.202V5.04396C58.8274 4.6367 58.5127 4.26415 58.087 4.20861H54.4378C53.975 4.20861 53.6025 4.59736 53.6025 5.04396V15.8433C53.6025 16.3617 53.4914 16.8823 53.2878 17.3636C53.0841 17.8264 52.8064 18.2545 52.4524 18.6062C51.7119 19.3467 50.7794 19.7748 49.7219 19.7563C49.2036 19.7563 48.6829 19.6452 48.2201 19.4416C47.2737 19.0343 46.5332 18.273 46.1445 17.3289C45.9594 16.8661 45.8668 16.364 45.8668 15.8642V5.0162C45.8668 4.5534 45.4966 4.18085 45.0315 4.18085H41.4726C41.0098 4.18085 40.6372 4.5696 40.6372 5.0162V15.8618C40.6372 17.0859 40.8779 18.31 41.3592 19.4393C41.822 20.5708 42.4722 21.5519 43.2682 22.4058L43.2728 22.4081Z" fill="#141414"/>
<path d="M94.9428 4.18311H80.6748C80.2027 4.18311 79.8232 4.58111 79.8232 5.03465V8.54959C79.8232 9.02165 80.2027 9.40114 80.6748 9.40114H81.6212C82.0933 9.40114 82.4728 9.78063 82.4728 10.2527V15.7438C82.4728 16.9933 82.718 18.2429 83.2109 19.3767C84.1758 21.6097 85.9553 23.4077 88.1883 24.3726C89.343 24.8655 90.5717 25.1108 91.8212 25.1108H95.0192C95.4912 25.1108 95.8707 24.7128 95.8707 24.2592V20.7397C95.8707 20.2676 95.4912 19.8881 95.0192 19.8881H91.8398C91.2914 19.8881 90.7614 19.7747 90.2686 19.5665C89.7965 19.3582 89.3592 19.0551 88.982 18.6964C88.6025 18.3169 88.3202 17.8819 88.1304 17.4098C87.9222 16.917 87.8088 16.3685 87.8273 15.8201V10.2712C87.8273 9.83617 88.149 9.4775 88.584 9.41965H94.9613C95.4334 9.41965 95.8129 9.02165 95.8129 8.5681V5.07168C95.7758 4.5788 95.4635 4.18311 94.9428 4.18311Z" fill="#141414"/>
<path d="M135.182 25.0969H131.105C130.862 25.0969 130.642 24.9858 130.476 24.8007L122.125 15.2023V20.6008C122.129 20.6378 122.132 20.6772 122.132 20.7142V24.2801C122.132 24.7382 121.759 25.1108 121.301 25.1108H117.74C117.277 25.1108 116.904 24.7382 116.904 24.2801C116.904 24.2801 116.886 23.9908 116.886 23.9191V5.37481C116.886 5.30307 116.893 5.23365 116.904 5.16655V5.01383C116.904 4.55566 117.277 4.18311 117.74 4.18311H121.301C121.759 4.18311 122.132 4.55566 122.132 5.01383V8.57967C122.132 8.6167 122.127 8.65604 122.125 8.69075V13.645L129.969 4.4793C130.117 4.29418 130.36 4.18311 130.598 4.18311H134.676C135.363 4.20162 135.733 4.99763 135.31 5.53679L128.132 13.9365C127.854 14.2512 127.854 14.714 128.132 15.0287L135.83 23.7432C136.235 24.2824 135.867 25.0784 135.182 25.0969Z" fill="#141414"/>
<path d="M78.6924 10.8982C78.616 10.1439 78.4309 9.41033 78.1347 8.72539C77.7552 7.83451 77.2137 7.03387 76.5218 6.34199L76.5103 6.32579C75.7976 5.65705 74.9807 5.13409 74.0968 4.7731C73.1874 4.38667 72.1739 4.18073 71.1673 4.18073H61.7447C61.2773 4.18073 60.8955 4.56253 60.8955 5.02996V24.2939C60.8955 24.7451 61.2611 25.1084 61.71 25.1084H65.3036C65.7549 25.1084 66.1228 24.7405 66.1228 24.2892V18.7287H71.1673C72.1762 18.7287 73.1897 18.5228 74.0922 18.141C74.983 17.7777 75.7952 17.2524 76.5126 16.586L76.5242 16.5698C77.2137 15.8825 77.7575 15.0796 78.1324 14.191C78.4957 13.3534 78.6924 12.4602 78.7224 11.5299C78.7224 11.4837 78.7224 11.4397 78.7224 11.3934L78.6924 10.8913V10.8982ZM73.3725 12.2079C73.1226 12.7911 72.6598 13.2469 72.0744 13.4853C71.7944 13.5986 71.4797 13.6565 71.1673 13.6565H66.1321V9.25992H71.1673C71.4774 9.25992 71.7897 9.32008 72.0674 9.43115C72.6552 9.66949 73.118 10.1253 73.3725 10.7131C73.4743 10.9514 73.5391 11.2175 73.5576 11.479C73.5345 11.7289 73.4697 11.9789 73.3725 12.2079Z" fill="#141414"/>
<path d="M106.631 25.1181C103.783 25.1181 101.434 24.2018 99.6502 22.3946C97.8707 20.5897 96.9683 18.1646 96.9683 15.1911V14.6635C96.9683 12.6874 97.357 10.8917 98.1253 9.32749C98.9004 7.74704 100.007 6.49749 101.413 5.61124C102.823 4.72729 104.412 4.27838 106.139 4.27838C108.885 4.27838 111.047 5.17852 112.565 6.95103C114.057 8.69809 114.816 11.181 114.816 14.328V14.8764C114.816 15.8228 114.045 16.5934 113.099 16.5934H102.443C102.619 17.7573 103.073 18.7014 103.781 19.4049C104.604 20.224 105.618 20.622 106.879 20.622C108.332 20.622 109.531 20.1639 110.544 19.2198C110.871 18.9166 111.292 18.75 111.734 18.75C112.176 18.75 112.592 18.9166 112.912 19.2221L113.578 19.8584C114.249 20.4994 114.288 21.5754 113.666 22.258C112.974 23.017 112.129 23.6441 111.162 24.1208C109.818 24.7826 108.295 25.1181 106.634 25.1181H106.631ZM109.492 12.3796C109.385 11.2203 109.052 10.3156 108.506 9.71624C107.939 9.09378 107.159 8.79065 106.122 8.79065C105.086 8.79065 104.304 9.13312 103.683 9.8412C103.137 10.4637 102.751 11.3175 102.533 12.3796H109.492Z" fill="#141414"/>
<path d="M106.631 24.5794C103.919 24.5794 101.721 23.7255 100.037 22.0178C98.3521 20.3101 97.5098 18.0354 97.5098 15.1938V14.6663C97.5098 12.7642 97.8754 11.0657 98.6112 9.56855C99.3447 8.0714 100.374 6.90747 101.703 6.07212C103.029 5.23909 104.51 4.82257 106.141 4.82257C108.735 4.82257 110.741 5.65098 112.155 7.30547C113.569 8.95997 114.277 11.304 114.277 14.333V14.8815C114.277 15.5317 113.749 16.0593 113.099 16.0593H102.443C102.108 16.0593 101.846 16.3601 101.899 16.691C102.105 17.9706 102.605 19.0027 103.399 19.794C104.32 20.7104 105.479 21.1686 106.877 21.1686C108.457 21.1686 109.802 20.6525 110.91 19.6228C111.371 19.1947 112.081 19.1855 112.534 19.6205L113.201 20.2568C113.664 20.6988 113.694 21.43 113.263 21.9021C112.613 22.6148 111.831 23.1956 110.919 23.6445C109.644 24.2716 108.217 24.5863 106.631 24.5863V24.5794ZM106.12 8.25189C104.945 8.25189 103.998 8.66378 103.276 9.48525C102.644 10.2049 102.212 11.1721 101.98 12.387C101.927 12.6623 102.135 12.9215 102.415 12.9215H110.047V12.6045C109.952 11.1721 109.573 10.0892 108.902 9.35566C108.233 8.62213 107.305 8.25421 106.118 8.25421L106.12 8.25189Z" fill="#141414"/>
<path d="M6.39492 9.67911L0.274438 16.5933C0.274438 16.5933 -0.91495 20.5595 1.66283 23.1372C1.66283 23.1372 4.8353 26.7077 9.39616 24.1299L16.7338 16.7923C16.7338 16.7923 17.7265 15.9986 19.1126 16.7923L17.3285 11.4377L11.3792 9.45465L6.39261 9.68142L6.39492 9.67911Z" fill="url(#paint0_linear_1299_31)"/>
<path d="M5.82702 10.2462L13.9584 2.11486C13.9584 2.11486 17.1308 -0.661918 21.097 2.11486L34.1849 15.2028C34.1849 15.2028 37.1607 19.5646 33.1922 23.1351C33.1922 23.1351 30.4154 26.9023 25.2599 23.5308L12.7667 11.4333C12.7667 11.4333 10.3879 8.45749 5.82471 10.2439L5.82702 10.2462Z" fill="url(#paint1_linear_1299_31)"/>
</g>
<defs>
<linearGradient id="paint0_linear_1299_31" x1="0.000488414" y1="17.2845" x2="19.1126" y2="17.2845" gradientUnits="userSpaceOnUse">
<stop stop-color="#89FFBF"/>
<stop offset="0.515" stop-color="#A4FA85"/>
<stop offset="1" stop-color="#A8E5A4"/>
</linearGradient>
<linearGradient id="paint1_linear_1299_31" x1="5.82471" y1="12.9451" x2="35.256" y2="12.9451" gradientUnits="userSpaceOnUse">
<stop stop-color="#89FFBF"/>
<stop offset="0.515" stop-color="#A4FA85"/>
<stop offset="1" stop-color="#A8E5A4"/>
</linearGradient>
<clipPath id="clip0_1299_31">
<rect width="136" height="24.2367" fill="white" transform="translate(0 0.881653)"/>
</clipPath>
</defs>
</svg>
