<svg width="270" height="49" viewBox="0 0 270 49" fill="none" xmlns="http://www.w3.org/2000/svg">
<g clip-path="url(#clip0_1101_52)">
<path d="M86.0284 43.1596C87.6828 44.8139 89.6259 46.1338 91.7935 47.0503C93.9978 48.0036 96.3855 48.4802 98.7685 48.4802C101.046 48.5168 103.287 48.1135 105.377 47.307C107.471 46.5004 109.378 45.286 111.032 43.7828C112.118 42.8938 114.011 41.1065 115.358 38.2285C116.815 35.1122 116.893 32.2938 116.834 30.8686V8.77041C116.834 7.96384 116.211 7.22602 115.367 7.11603H108.14C107.224 7.11603 106.486 7.88593 106.486 8.77041V30.1582C106.486 31.1848 106.266 32.2159 105.863 33.1691C105.459 34.0857 104.909 34.9335 104.208 35.6301C102.742 37.0965 100.895 37.9444 98.8006 37.9077C97.774 37.9077 96.7429 37.6877 95.8264 37.2844C93.952 36.4779 92.4855 34.9701 91.7156 33.1004C91.349 32.1838 91.1657 31.1894 91.1657 30.1995V8.71542C91.1657 7.79886 90.4324 7.06104 89.5113 7.06104H82.463C81.5464 7.06104 80.8086 7.83094 80.8086 8.71542V30.1949C80.8086 32.6192 81.2852 35.0435 82.2384 37.2799C83.155 39.5208 84.4427 41.4639 86.0192 43.155L86.0284 43.1596Z" fill="white"/>
<path d="M188.36 7.06592H160.102C159.168 7.06592 158.416 7.85416 158.416 8.75238V15.7136C158.416 16.6485 159.168 17.4001 160.102 17.4001H161.977C162.912 17.4001 163.663 18.1517 163.663 19.0865V29.9615C163.663 32.4362 164.149 34.9109 165.125 37.1564C167.036 41.5788 170.56 45.1396 174.983 47.0506C177.27 48.0268 179.703 48.5126 182.178 48.5126H188.511C189.446 48.5126 190.198 47.7243 190.198 46.8261V39.8557C190.198 38.9208 189.446 38.1692 188.511 38.1692H182.214C181.128 38.1692 180.079 37.9447 179.103 37.5322C178.168 37.1198 177.302 36.5194 176.555 35.8091C175.803 35.0575 175.244 34.196 174.868 33.2611C174.456 32.2849 174.231 31.1988 174.268 30.1127V19.1232C174.268 18.2616 174.905 17.5513 175.766 17.4367H188.397C189.331 17.4367 190.083 16.6485 190.083 15.7503V8.8257C190.01 7.84957 189.391 7.06592 188.36 7.06592Z" fill="white"/>
<path d="M268.052 48.4851H259.978C259.496 48.4851 259.061 48.2651 258.731 47.8985L242.192 28.8891V39.5807C242.201 39.654 242.206 39.7319 242.206 39.8053V46.8673C242.206 47.7747 241.468 48.5126 240.56 48.5126H233.507C232.591 48.5126 231.853 47.7747 231.853 46.8673C231.853 46.8673 231.816 46.2945 231.816 46.1524V9.42605C231.816 9.28398 231.83 9.1465 231.853 9.0136V8.71113C231.853 7.80375 232.591 7.06592 233.507 7.06592H240.56C241.468 7.06592 242.206 7.80375 242.206 8.71113V15.7732C242.206 15.8465 242.196 15.9244 242.192 15.9932V25.8049L257.727 7.65251C258.021 7.28589 258.502 7.06592 258.974 7.06592H267.049C268.41 7.10258 269.143 8.67906 268.304 9.74684L254.089 26.3823C253.539 27.0056 253.539 27.9221 254.089 28.5454L269.336 45.8041C270.138 46.8719 269.409 48.4484 268.052 48.4851Z" fill="white"/>
<path d="M156.176 20.3648C156.025 18.8709 155.658 17.4181 155.071 16.0616C154.32 14.2972 153.247 12.7116 151.877 11.3413L151.854 11.3093C150.443 9.98485 148.825 8.94914 147.074 8.23423C145.273 7.4689 143.266 7.06104 141.273 7.06104H122.612C121.686 7.06104 120.93 7.81719 120.93 8.74291V46.8945C120.93 47.7882 121.654 48.5077 122.543 48.5077H129.66C130.554 48.5077 131.282 47.779 131.282 46.8854V35.8729H141.273C143.271 35.8729 145.278 35.4651 147.065 34.7089C148.83 33.9894 150.438 32.9491 151.859 31.6293L151.882 31.5972C153.247 30.2361 154.324 28.6459 155.067 26.8861C155.786 25.2272 156.176 23.4582 156.235 21.6159C156.235 21.5243 156.235 21.4372 156.235 21.3455L156.176 20.3511V20.3648ZM145.64 22.9587C145.145 24.1135 144.229 25.0164 143.069 25.4884C142.515 25.7129 141.891 25.8275 141.273 25.8275H131.301V17.1202H141.273C141.887 17.1202 142.505 17.2394 143.055 17.4594C144.219 17.9314 145.136 18.8342 145.64 19.9982C145.842 20.4702 145.97 20.9973 146.007 21.5151C145.961 22.0101 145.832 22.505 145.64 22.9587Z" fill="white"/>
<path d="M211.509 48.5269C205.867 48.5269 201.216 46.7121 197.683 43.1329C194.158 39.5584 192.371 34.7556 192.371 28.8668V27.8219C192.371 23.9082 193.141 20.352 194.662 17.254C196.198 14.124 198.388 11.6493 201.175 9.89407C203.966 8.14345 207.114 7.25439 210.533 7.25439C215.972 7.25439 220.253 9.03709 223.259 12.5475C226.215 16.0075 227.718 20.9248 227.718 27.1574V28.2435C227.718 30.1179 226.192 31.6439 224.318 31.6439H203.214C203.562 33.9491 204.46 35.8188 205.863 37.212C207.494 38.8343 209.502 39.6225 211.999 39.6225C214.877 39.6225 217.251 38.7152 219.258 36.8454C219.904 36.245 220.738 35.9151 221.614 35.9151C222.489 35.9151 223.314 36.245 223.946 36.85L225.266 38.1102C226.595 39.3797 226.673 41.5106 225.44 42.8626C224.07 44.3657 222.397 45.6077 220.482 46.5517C217.819 47.8624 214.804 48.5269 211.513 48.5269H211.509ZM217.173 23.2987C216.962 21.0027 216.302 19.2109 215.221 18.0239C214.098 16.7912 212.554 16.1908 210.501 16.1908C208.447 16.1908 206.899 16.8691 205.67 18.2714C204.589 19.5042 203.823 21.1952 203.393 23.2987H217.173Z" fill="white"/>
<path d="M211.509 47.4603C206.138 47.4603 201.784 45.7692 198.448 42.3871C195.111 39.005 193.443 34.5002 193.443 28.8725V27.8277C193.443 24.0606 194.167 20.6969 195.625 17.7318C197.077 14.7667 199.117 12.4616 201.747 10.8072C204.373 9.15742 207.306 8.33252 210.537 8.33252C215.674 8.33252 219.648 9.97315 222.448 13.2498C225.248 16.5265 226.65 21.1689 226.65 27.1677V28.2538C226.65 29.5416 225.605 30.5865 224.318 30.5865H203.214C202.549 30.5865 202.031 31.1822 202.137 31.8376C202.545 34.3719 203.535 36.4158 205.107 37.9831C206.93 39.7979 209.226 40.7053 211.994 40.7053C215.124 40.7053 217.787 39.6833 219.982 37.644C220.894 36.7961 222.301 36.7778 223.199 37.6394L224.519 38.8996C225.436 39.775 225.495 41.2231 224.643 42.158C223.355 43.5695 221.806 44.7198 220.001 45.6088C217.475 46.8508 214.648 47.474 211.509 47.474V47.4603ZM210.496 15.1242C208.168 15.1242 206.293 15.9399 204.864 17.5668C203.613 18.9921 202.756 20.9077 202.297 23.3136C202.192 23.859 202.604 24.3722 203.159 24.3722H218.273V23.7444C218.085 20.9077 217.333 18.7629 216.004 17.3102C214.68 15.8574 212.842 15.1288 210.491 15.1288L210.496 15.1242Z" fill="white"/>
<path d="M12.9921 17.9499L0.870674 31.6432C0.870674 31.6432 -1.48487 39.4981 3.62034 44.6033C3.62034 44.6033 9.90333 51.6745 18.936 46.5693L33.468 32.0374C33.468 32.0374 35.434 30.4655 38.1791 32.0374L34.6457 21.4328L22.8634 17.5054L12.9875 17.9545L12.9921 17.9499Z" fill="url(#paint0_linear_1101_52)"/>
<path d="M11.8679 19.0729L27.9717 2.96905C27.9717 2.96905 34.2547 -2.53028 42.1096 2.96905L68.0298 28.8892C68.0298 28.8892 73.9232 37.5278 66.0638 44.599C66.0638 44.599 60.5644 52.0597 50.354 45.3826L25.6116 21.4239C25.6116 21.4239 20.9005 15.5304 11.8633 19.0683L11.8679 19.0729Z" fill="url(#paint1_linear_1101_52)"/>
</g>
<defs>
<linearGradient id="paint0_linear_1101_52" x1="0.328125" y1="33.0122" x2="38.1791" y2="33.0122" gradientUnits="userSpaceOnUse">
<stop stop-color="#89FFBF"/>
<stop offset="0.515" stop-color="#A4FA85"/>
<stop offset="1" stop-color="#A8E5A4"/>
</linearGradient>
<linearGradient id="paint1_linear_1101_52" x1="11.8633" y1="24.418" x2="70.1511" y2="24.418" gradientUnits="userSpaceOnUse">
<stop stop-color="#89FFBF"/>
<stop offset="0.515" stop-color="#A4FA85"/>
<stop offset="1" stop-color="#A8E5A4"/>
</linearGradient>
<clipPath id="clip0_1101_52">
<rect width="269.344" height="48" fill="white" transform="translate(0.328125 0.526855)"/>
</clipPath>
</defs>
</svg>
