<svg width="130" height="37" viewBox="0 0 130 37" fill="none" xmlns="http://www.w3.org/2000/svg">
<g clip-path="url(#clip0_623_1049)">
<path d="M3.27677 15.26C3.27677 13.2902 2.26259 11.6626 0.366699 10.2957H4.77326C5.55005 10.8778 6.17944 11.6288 6.61218 12.49C7.04493 13.3513 7.2693 14.2993 7.26774 15.26C7.2693 16.2208 7.04493 17.1688 6.61218 18.0301C6.17944 18.8913 5.55005 19.6423 4.77326 20.2244C6.20402 20.8114 7.01799 22.244 7.01799 24.2944V28.2013H3.02803V24.2944C3.02803 22.3415 2.08059 20.9746 0.36771 20.2254C2.2636 18.8575 3.27778 17.2309 3.27778 15.261L3.27677 15.26ZM11.9241 15.26C11.9241 13.2902 10.9099 11.6626 9.01399 10.2957H13.4216C14.1982 10.8779 14.8274 11.629 15.2599 12.4902C15.6925 13.3514 15.9167 14.2994 15.915 15.26C15.9167 16.2207 15.6925 17.1687 15.2599 18.0299C14.8274 18.8911 14.1982 19.6422 13.4216 20.2244C14.8513 20.8114 15.6663 22.244 15.6663 24.2944V28.2013H11.6753V24.2944C11.6753 22.3415 10.7269 20.9746 9.01399 20.2254C10.9099 18.8575 11.9241 17.2309 11.9241 15.261V15.26ZM20.5734 15.26C20.5734 13.2902 19.5592 11.6626 17.6633 10.2957H22.0699C22.8466 10.8778 23.476 11.6288 23.9088 12.49C24.3415 13.3513 24.5659 14.2993 24.5643 15.26C24.5659 16.2208 24.3415 17.1688 23.9088 18.0301C23.476 18.8913 22.8466 19.6423 22.0699 20.2244C23.5006 20.8114 24.3146 22.244 24.3146 24.2944V28.2013H20.3236V24.2944C20.3236 22.3415 19.3762 20.9746 17.6633 20.2254C19.5592 18.8575 20.5734 17.2309 20.5734 15.261V15.26ZM36.7193 24.9481H33.6939V13.5509H41.1279C44.7033 13.5509 46.4657 14.8541 46.4657 16.9861C46.4657 18.4347 45.6012 19.525 43.9884 20.0792C45.6507 20.3229 46.3989 21.1855 46.3989 22.7325V24.9461H43.3392V22.8628C43.3392 21.5596 42.6739 21.0392 40.9277 21.0392H36.7213V24.9481H36.7193ZM40.96 15.2113H36.7193V19.3798H40.9266C42.4565 19.3798 43.4039 18.5491 43.4039 17.2468C43.4039 15.9604 42.5243 15.2113 40.96 15.2113ZM51.7196 13.5509H48.6932V24.9481H51.7196V13.5509ZM60.9988 21.2342H57.3071V24.9461H54.2798V13.5509H61.0645C64.6399 13.5509 66.5197 15.0163 66.5197 17.3612C66.5197 19.7857 64.6076 21.2342 60.9988 21.2342ZM60.9321 15.2113H57.3071V19.5738H60.8987C62.462 19.5738 63.4266 18.7928 63.4266 17.3771C63.4266 15.9933 62.4619 15.2113 60.9321 15.2113ZM75.0345 21.2342H71.3428V24.9461H68.3154V13.5509H75.1002C78.6756 13.5509 80.5553 15.0163 80.5553 17.3612C80.5553 19.7857 78.6423 21.2342 75.0345 21.2342ZM74.9678 15.2113H71.3428V19.5738H74.9344C76.4976 19.5738 77.4622 18.7928 77.4622 17.3771C77.4622 15.9933 76.4976 15.2113 74.9678 15.2113ZM85.3775 13.5509V23.2528H92.9277V24.9481H82.3511V13.5509H85.3775ZM97.8479 13.5509H94.8215V24.9481H97.8479V13.5509ZM102.405 17.3602V24.9481H100.409V13.5509H102.673L110.921 21.1367V13.5509H112.917V24.9481H110.655L102.405 17.3592V17.3602ZM122.796 14.886C119.918 14.886 118.039 16.6767 118.039 19.346C118.039 21.9824 119.835 23.611 122.629 23.611H122.828C123.777 23.611 124.84 23.415 125.822 23.1066V20.0294H120.933V18.4018H128.782V23.7572C127.153 24.5879 124.691 25.2396 122.696 25.2396H122.43C117.839 25.2396 114.88 22.8618 114.88 19.4106C114.88 15.9923 117.923 13.2584 122.596 13.2584H122.862C124.808 13.2584 127.036 13.8603 128.683 14.8044L127.817 16.1873C126.338 15.3904 124.574 14.886 122.995 14.886H122.796Z" fill="white"/>
</g>
<defs>
<clipPath id="clip0_623_1049">
<rect width="128.921" height="35.8113" fill="white" transform="translate(0.366699 0.59668)"/>
</clipPath>
</defs>
</svg>
