<svg width="467" height="309" viewBox="0 0 467 309" fill="none" xmlns="http://www.w3.org/2000/svg">
<g filter="url(#filter0_d_559_1587)">
<rect x="13.0439" y="19" width="441.805" height="295.688" rx="18.4086" fill="white"/>
</g>
<g filter="url(#filter1_d_559_1587)">
<rect x="-13.9238" y="166.844" width="240.516" height="86.2918" rx="11.016" fill="white" shape-rendering="crispEdges"/>
<circle cx="29.2221" cy="209.99" r="28.4579" fill="#F1F5F9"/>
<rect x="68.6958" y="188.875" width="143.208" height="19.278" rx="6.12951" fill="#F1F5F9"/>
<rect x="68.6958" y="217.333" width="113.832" height="13.77" rx="6.12951" fill="#E7E9EB"/>
</g>
<g filter="url(#filter2_d_559_1587)">
<rect x="240.409" y="194.758" width="240.516" height="86.2918" rx="11.016" fill="white" shape-rendering="crispEdges"/>
<circle cx="283.555" cy="237.904" r="28.4579" fill="#F1F5F9"/>
<rect x="323.028" y="216.79" width="143.208" height="19.278" rx="6.12951" fill="#F1F5F9"/>
<rect x="323.028" y="245.248" width="113.832" height="13.77" rx="6.12951" fill="#E7E9EB"/>
</g>
<circle cx="37.4683" cy="46.3482" r="4.60214" fill="#FE9A9A"/>
<circle cx="53.5758" cy="46.3482" r="4.60214" fill="#FFC85B"/>
<circle cx="69.6832" cy="46.3482" r="4.60214" fill="#ABFF95"/>
<rect x="77.3857" y="79.9985" width="323.602" height="24.8129" rx="6.90321" fill="#F1F5F9"/>
<rect x="39.1333" y="119.286" width="389.77" height="24.8129" rx="6.90321" fill="#F1F5F9"/>
<g clip-path="url(#clip0_559_1587)">
<path d="M244.588 43.5884C246.212 43.5884 247.749 44.5965 248.074 46.7747H240.842C241.145 44.8633 242.553 43.5884 244.588 43.5884ZM247.843 49.9972C247.29 50.8709 246.223 51.5429 244.761 51.5429C242.747 51.5429 241.209 50.4226 240.842 48.4447H249.915C249.959 48.1613 249.981 47.8748 249.981 47.5879C249.981 44.5118 247.862 41.7866 244.589 41.7866C241.211 41.7866 238.916 44.3136 238.916 47.5664C238.916 50.8595 241.234 53.3461 244.719 53.3461C246.884 53.3461 248.53 52.3568 249.483 50.8595L247.843 49.9972Z" fill="#006BFF"/>
<path d="M238.028 37.019H236.144V53.0605H238.028V37.019Z" fill="#006BFF"/>
<path d="M260.467 46.3142V53.0597H258.583V46.4238C258.583 44.622 257.566 43.6112 255.898 43.6112C254.165 43.6112 252.758 44.6442 252.758 47.237V53.0597H250.874V42.0742H252.758V43.6562C253.56 42.3598 254.75 41.7886 256.268 41.7886C258.801 41.7886 260.469 43.5023 260.469 46.3156" fill="#006BFF"/>
<path d="M270.851 47.5664C270.851 45.3251 269.183 43.6328 266.996 43.6328C264.831 43.6328 263.164 45.3251 263.164 47.5664C263.164 49.8077 264.831 51.5 266.996 51.5C269.182 51.5 270.851 49.8077 270.851 47.5664ZM272.734 37.019V53.0605H270.851V51.17C269.985 52.5141 268.599 53.3461 266.758 53.3461C263.748 53.3461 261.28 50.8185 261.28 47.5664C261.28 44.3143 263.748 41.7866 266.758 41.7866C268.599 41.7866 269.985 42.6213 270.851 43.9621V37.019H272.734Z" fill="#006BFF"/>
<path d="M276.137 37.019H274.253V53.0605H276.137V37.019Z" fill="#006BFF"/>
<path d="M232.787 47.5664C232.787 45.325 231.12 43.6328 228.933 43.6328C226.768 43.6328 225.1 45.325 225.1 47.5664C225.1 49.8077 226.768 51.4999 228.933 51.4999C231.118 51.4999 232.787 49.8077 232.787 47.5664ZM234.672 42.0743V53.0598H232.787V51.1699C231.921 52.5141 230.536 53.3461 228.695 53.3461C225.685 53.3461 223.216 50.8185 223.216 47.5664C223.216 44.3142 225.685 41.7866 228.695 41.7866C230.536 41.7866 231.921 42.6213 232.787 43.9621V42.0743H234.672Z" fill="#006BFF"/>
<path d="M220.421 50.9446C219.457 51.3057 218.416 51.4032 217.403 51.2273C216.39 51.0514 215.44 50.6083 214.649 49.9424C213.858 49.2765 213.253 48.4113 212.895 47.4334C212.537 46.4555 212.439 45.3994 212.611 44.3709C212.782 43.3424 213.217 42.3777 213.871 41.5735C214.526 40.7693 215.377 40.1539 216.34 39.789C217.303 39.4241 218.344 39.3224 219.358 39.4943C220.372 39.6662 221.323 40.1055 222.117 40.7682C222.448 41.0454 222.747 41.3591 223.009 41.7037L224.639 40.494C223.69 39.2344 222.393 38.2892 220.914 37.7782C219.434 37.2672 217.838 37.2134 216.329 37.6238C214.819 38.0341 213.464 38.89 212.434 40.083C211.404 41.2759 210.747 42.7523 210.545 44.325C210.343 45.8976 210.605 47.4957 211.299 48.9166C211.993 50.3376 213.088 51.5175 214.443 52.3068C215.799 53.096 217.355 53.4591 218.914 53.35C220.473 53.2409 221.965 52.6645 223.201 51.6939L222.116 49.9533C221.609 50.3769 221.037 50.7119 220.421 50.9446Z" fill="#006BFF"/>
<path d="M285.229 42.0737V48.3091C285.229 50.3253 284.073 51.6022 282.309 51.6022C280.545 51.6022 279.267 50.3253 279.267 48.3091V42.0737H277.361V48.1223C277.361 51.2917 279.308 53.3496 282.309 53.3496C284.905 53.3496 285.311 51.6829 285.311 51.6412V53.8845C285.311 56.1071 284.358 57.3625 282.37 57.3625C281.66 57.366 280.973 57.1076 280.437 56.6353C279.901 56.1629 279.552 55.509 279.456 54.7952L277.752 55.4C277.996 56.4575 278.585 57.4 279.425 58.074C280.264 58.748 281.303 59.1138 282.373 59.1118C285.456 59.1118 287.142 57.0533 287.142 53.8845V42.0737H285.229Z" fill="#006BFF"/>
<path d="M197.777 48.4758C197.053 49.1277 196.149 49.9389 194.51 49.9389H193.53C192.344 49.9389 191.265 49.5013 190.493 48.7083C189.739 47.9334 189.323 46.8729 189.323 45.7217V44.3607C189.323 43.2095 189.739 42.149 190.493 41.3741C191.265 40.5811 192.344 40.1442 193.53 40.1442H194.51C196.151 40.1442 197.053 40.9547 197.777 41.6066C198.529 42.2787 199.177 42.8661 200.906 42.8661C201.17 42.866 201.433 42.8447 201.694 42.8022L201.688 42.7868C201.584 42.5258 201.463 42.2724 201.324 42.0287L200.169 39.997C199.647 39.0812 198.898 38.3207 197.995 37.7919C197.093 37.2632 196.069 36.9848 195.027 36.9849H192.715C191.673 36.9848 190.649 37.2632 189.746 37.7919C188.844 38.3207 188.094 39.0812 187.573 39.997L186.417 42.0287C185.896 42.9447 185.622 43.9836 185.622 45.0412C185.622 46.0988 185.896 47.1378 186.417 48.0537L187.573 50.0854C188.094 51.0012 188.844 51.7618 189.746 52.2905C190.649 52.8192 191.673 53.0976 192.715 53.0975H195.027C196.069 53.0976 197.093 52.8192 197.995 52.2905C198.898 51.7618 199.647 51.0012 200.169 50.0854L201.324 48.0571C201.463 47.8133 201.584 47.56 201.688 47.299L201.694 47.2842C201.434 47.2403 201.17 47.2179 200.906 47.217C199.177 47.217 198.529 47.801 197.777 48.4764" fill="#006BFF"/>
<path d="M194.508 41.3765H193.528C191.723 41.3765 190.537 42.685 190.537 44.3597V45.7207C190.537 47.3955 191.723 48.704 193.528 48.704H194.508C197.139 48.704 196.932 45.9821 200.904 45.9821C201.281 45.9817 201.656 46.0168 202.026 46.0869C202.147 45.3945 202.147 44.6859 202.026 43.9935C201.656 44.0633 201.281 44.0984 200.904 44.0983C196.931 44.0983 197.139 41.3765 194.508 41.3765Z" fill="#006BFF"/>
<path d="M204.309 47.0818C203.632 46.579 202.852 46.2387 202.027 46.0865C202.027 46.0938 202.027 46.0999 202.027 46.1066C201.956 46.5079 201.845 46.9008 201.696 47.2794C202.378 47.3865 203.024 47.6567 203.582 48.0677C203.582 48.0731 203.579 48.0798 203.577 48.0858C202.859 50.4462 201.33 52.4669 199.268 53.7807C197.207 55.0945 194.749 55.6143 192.342 55.2457C189.935 54.8771 187.738 53.6445 186.15 51.7719C184.562 49.8993 183.689 47.5108 183.689 45.0404C183.689 42.57 184.562 40.1815 186.15 38.3089C187.738 36.4363 189.935 35.2037 192.342 34.8351C194.749 34.4665 197.207 34.9863 199.268 36.3001C201.33 37.6139 202.859 39.6345 203.577 41.9949C203.577 42.001 203.58 42.0077 203.582 42.0131C203.024 42.4241 202.378 42.6942 201.696 42.8007C201.845 43.1798 201.956 43.5732 202.027 43.9748C202.027 43.9811 202.027 43.9874 202.027 43.9937C202.852 43.8417 203.632 43.5016 204.309 42.999C204.959 42.5104 204.833 41.9587 204.735 41.632C203.931 38.9855 202.218 36.7196 199.907 35.2459C197.596 33.7723 194.841 33.1887 192.143 33.6013C189.444 34.0139 186.981 35.3952 185.201 37.4943C183.42 39.5934 182.441 42.271 182.441 45.0404C182.441 47.8098 183.42 50.4874 185.201 52.5865C186.981 54.6856 189.444 56.0669 192.143 56.4795C194.841 56.8921 197.596 56.3085 199.907 54.8349C202.218 53.3612 203.931 51.0953 204.735 48.4488C204.833 48.1221 204.959 47.5704 204.309 47.0818Z" fill="#006BFF"/>
<path d="M201.687 42.8013C201.427 42.8452 201.164 42.8677 200.9 42.8685C199.171 42.8685 198.522 42.2845 197.771 41.6091C197.047 40.9572 196.145 40.146 194.504 40.146H193.524C192.337 40.146 191.259 40.5835 190.486 41.3765C189.732 42.1514 189.317 43.2119 189.317 44.3632V45.7241C189.317 46.8753 189.732 47.9359 190.486 48.7108C191.259 49.5038 192.337 49.9406 193.524 49.9406H194.504C196.145 49.9406 197.047 49.1301 197.771 48.4782C198.522 47.8062 199.171 47.2188 200.9 47.2188C201.164 47.2188 201.427 47.2402 201.687 47.2826C201.837 46.9042 201.948 46.5112 202.019 46.1099C202.019 46.1032 202.019 46.0964 202.019 46.0897C201.649 46.0201 201.273 45.9852 200.897 45.9855C196.923 45.9855 197.131 48.7081 194.5 48.7081H193.52C191.715 48.7081 190.529 47.3989 190.529 45.7241V44.3605C190.529 42.6857 191.715 41.3772 193.52 41.3772H194.5C197.131 41.3772 196.924 44.0984 200.897 44.0984C201.273 44.099 201.649 44.0642 202.019 43.9942C202.019 43.9882 202.019 43.9821 202.019 43.9754C201.947 43.5737 201.836 43.1804 201.687 42.8013Z" fill="#0AE8F0"/>
<path d="M201.687 42.8013C201.427 42.8452 201.164 42.8677 200.9 42.8685C199.171 42.8685 198.522 42.2845 197.771 41.6091C197.047 40.9572 196.145 40.146 194.504 40.146H193.524C192.337 40.146 191.259 40.5835 190.486 41.3765C189.732 42.1514 189.317 43.2119 189.317 44.3632V45.7241C189.317 46.8753 189.732 47.9359 190.486 48.7108C191.259 49.5038 192.337 49.9406 193.524 49.9406H194.504C196.145 49.9406 197.047 49.1301 197.771 48.4782C198.522 47.8062 199.171 47.2188 200.9 47.2188C201.164 47.2188 201.427 47.2402 201.687 47.2826C201.837 46.9042 201.948 46.5112 202.019 46.1099C202.019 46.1032 202.019 46.0964 202.019 46.0897C201.649 46.0201 201.273 45.9852 200.897 45.9855C196.923 45.9855 197.131 48.7081 194.5 48.7081H193.52C191.715 48.7081 190.529 47.3989 190.529 45.7241V44.3605C190.529 42.6857 191.715 41.3772 193.52 41.3772H194.5C197.131 41.3772 196.924 44.0984 200.897 44.0984C201.273 44.099 201.649 44.0642 202.019 43.9942C202.019 43.9882 202.019 43.9821 202.019 43.9754C201.947 43.5737 201.836 43.1804 201.687 42.8013Z" fill="#0AE8F0"/>
</g>
<defs>
<filter id="filter0_d_559_1587" x="-23.7732" y="0.591442" width="515.44" height="369.322" filterUnits="userSpaceOnUse" color-interpolation-filters="sRGB">
<feFlood flood-opacity="0" result="BackgroundImageFix"/>
<feColorMatrix in="SourceAlpha" type="matrix" values="0 0 0 0 0 0 0 0 0 0 0 0 0 0 0 0 0 0 127 0" result="hardAlpha"/>
<feOffset dy="18.4086"/>
<feGaussianBlur stdDeviation="18.4086"/>
<feComposite in2="hardAlpha" operator="out"/>
<feColorMatrix type="matrix" values="0 0 0 0 0 0 0 0 0 0 0 0 0 0 0 0 0 0 0.06 0"/>
<feBlend mode="normal" in2="BackgroundImageFix" result="effect1_dropShadow_559_1587"/>
<feBlend mode="normal" in="SourceGraphic" in2="effect1_dropShadow_559_1587" result="shape"/>
</filter>
<filter id="filter1_d_559_1587" x="-50.7409" y="148.435" width="314.15" height="159.926" filterUnits="userSpaceOnUse" color-interpolation-filters="sRGB">
<feFlood flood-opacity="0" result="BackgroundImageFix"/>
<feColorMatrix in="SourceAlpha" type="matrix" values="0 0 0 0 0 0 0 0 0 0 0 0 0 0 0 0 0 0 127 0" result="hardAlpha"/>
<feOffset dy="18.4086"/>
<feGaussianBlur stdDeviation="18.4086"/>
<feComposite in2="hardAlpha" operator="out"/>
<feColorMatrix type="matrix" values="0 0 0 0 0 0 0 0 0 0 0 0 0 0 0 0 0 0 0.06 0"/>
<feBlend mode="normal" in2="BackgroundImageFix" result="effect1_dropShadow_559_1587"/>
<feBlend mode="normal" in="SourceGraphic" in2="effect1_dropShadow_559_1587" result="shape"/>
</filter>
<filter id="filter2_d_559_1587" x="203.592" y="176.35" width="314.15" height="159.926" filterUnits="userSpaceOnUse" color-interpolation-filters="sRGB">
<feFlood flood-opacity="0" result="BackgroundImageFix"/>
<feColorMatrix in="SourceAlpha" type="matrix" values="0 0 0 0 0 0 0 0 0 0 0 0 0 0 0 0 0 0 127 0" result="hardAlpha"/>
<feOffset dy="18.4086"/>
<feGaussianBlur stdDeviation="18.4086"/>
<feComposite in2="hardAlpha" operator="out"/>
<feColorMatrix type="matrix" values="0 0 0 0 0 0 0 0 0 0 0 0 0 0 0 0 0 0 0.06 0"/>
<feBlend mode="normal" in2="BackgroundImageFix" result="effect1_dropShadow_559_1587"/>
<feBlend mode="normal" in="SourceGraphic" in2="effect1_dropShadow_559_1587" result="shape"/>
</filter>
<clipPath id="clip0_559_1587">
<rect width="104.699" height="25.6405" fill="white" transform="translate(182.437 33.4741)"/>
</clipPath>
</defs>
</svg>
