<svg width="155" height="37" viewBox="0 0 155 37" fill="none" xmlns="http://www.w3.org/2000/svg">
<g clip-path="url(#clip0_623_1045)">
<path fill-rule="evenodd" clip-rule="evenodd" d="M72.1714 22.6654C71.3951 22.8396 70.9935 22.6072 70.9935 22.1067C70.9935 21.421 71.722 21.1465 72.7627 21.1465C73.2205 21.1465 73.6523 21.185 73.6523 21.185C73.6523 21.4785 72.9969 22.4801 72.1714 22.6654ZM72.9614 15.8002C70.4764 15.8002 68.6922 16.6896 68.6922 16.6896V19.3041C68.6922 19.3041 70.662 18.2019 72.2601 18.2019C73.535 18.2019 73.6918 18.8715 73.634 19.4269C73.634 19.4269 73.266 19.3322 72.1439 19.3322C69.4988 19.3322 68.1641 20.5022 68.1641 22.3779C68.1641 24.1574 69.6642 24.9009 70.9284 24.9009C72.7727 24.9009 73.5839 23.6944 73.8327 23.1222C74.0057 22.7252 74.0376 22.4575 74.1924 22.4575C74.3701 22.4575 74.3103 22.6495 74.3014 23.0446C74.2867 23.7367 74.3206 24.2598 74.4332 24.7008H76.879V20.4191C76.879 17.7458 75.9071 15.8002 72.9614 15.8002Z" fill="white"/>
<path fill-rule="evenodd" clip-rule="evenodd" d="M89.0589 20.3549C89.0589 19.5729 89.806 18.8606 91.1772 18.8606C92.671 18.8606 93.8731 19.5609 94.1425 19.72V16.6933C94.1425 16.6933 93.1932 15.8036 90.8596 15.8036C88.3999 15.8036 86.3513 17.2044 86.3513 20.2198C86.3513 23.2348 88.2105 24.9069 90.853 24.9069C92.9175 24.9069 94.1478 23.8028 94.1478 23.8028V20.9284C93.7585 21.1402 92.674 21.8731 91.1921 21.8731C89.6233 21.8731 89.0589 21.1703 89.0589 20.3549ZM56.3694 16.0017C56.3698 16.0037 56.5256 16.6542 56.3203 17.5047C56.2156 17.9373 56.0233 18.3052 56.2555 18.3052C56.4156 18.3052 56.4159 18.1759 56.6242 17.7123C56.9288 17.0347 57.5709 15.8013 59.0714 15.8013C60.4977 15.8013 61.1697 16.6448 61.3923 17.4346C61.5617 18.0346 61.4135 18.3052 61.6202 18.3052C61.767 18.3052 61.8178 17.9939 61.9985 17.6001C62.323 16.8947 63.0289 15.8013 64.4566 15.8013C66.6108 15.8013 67.4332 17.3153 67.4332 19.5864V24.7039H64.233V19.986C64.233 19.1994 64.1025 18.4365 63.3657 18.4365C62.6831 18.4365 62.3649 19.6139 62.3649 20.374V24.7058H59.1059V19.9863C59.1059 18.9799 58.9601 18.4368 58.2333 18.4368C57.6041 18.4368 57.2371 19.5202 57.2371 20.3743V24.7042H53.9911V16.0017H56.3694ZM77.9443 16.0137C77.9456 16.0144 78.498 16.3244 79.5703 16.3244C80.6446 16.3244 81.19 16.0137 81.19 16.0137V24.7061H77.9443V16.0137ZM104.741 16.0137C104.742 16.0144 105.294 16.3244 106.367 16.3244C107.441 16.3244 107.987 16.0137 107.987 16.0137V24.7061H104.741V16.0137ZM85.4864 13.3672V24.7061H82.2403V13.3672H85.4864ZM98.0001 13.3672C98.0004 13.3682 98.1346 13.6941 98.1346 14.6633C98.1346 16.0945 97.8147 17.2594 97.6636 17.7032C97.5835 17.9383 97.4407 18.301 97.6457 18.3075C97.7639 18.311 97.835 18.1377 97.9798 17.8371C98.124 17.5361 98.8388 15.8032 100.718 15.8032C103.306 15.8032 103.686 17.8659 103.686 20.0995V24.7058H100.44V19.9104C100.44 18.9269 100.228 18.4384 99.551 18.4384C98.7332 18.4384 98.4442 19.6708 98.4442 20.3762V24.7058H95.1982V13.3669L98.0001 13.3672ZM111.462 16.0017C111.462 16.0037 111.618 16.6542 111.412 17.5047C111.308 17.9373 111.115 18.3052 111.348 18.3052C111.508 18.3052 111.508 18.1759 111.716 17.7123C112.021 17.0347 112.663 15.8013 114.163 15.8013C115.655 15.8013 116.247 16.6487 116.484 17.4346C116.644 17.9612 116.506 18.3052 116.712 18.3052C116.859 18.3052 116.91 17.9939 117.091 17.6001C117.414 16.8947 118.121 15.8013 119.549 15.8013C121.703 15.8013 122.525 17.3153 122.525 19.5864V24.7039H119.325V19.986C119.325 19.1994 119.195 18.4365 118.458 18.4365C117.775 18.4365 117.457 19.6139 117.457 20.374V24.7058H114.198V19.9863C114.198 18.9799 114.053 18.4368 113.325 18.4368C112.696 18.4368 112.329 19.5202 112.329 20.3743V24.7042H109.083V16.0017H111.462ZM79.5573 13.2793C78.4605 13.2793 77.5706 13.8444 77.5706 14.5414C77.5706 15.2384 78.4602 15.8036 79.5573 15.8036C80.6549 15.8036 81.5444 15.2384 81.5444 14.5414C81.5444 13.8444 80.6552 13.2793 79.5573 13.2793ZM106.354 13.2793C105.257 13.2793 104.367 13.8444 104.367 14.5414C104.367 15.2384 105.256 15.8036 106.354 15.8036C107.451 15.8036 108.341 15.2384 108.341 14.5414C108.341 13.8444 107.451 13.2793 106.354 13.2793Z" fill="white"/>
<path fill-rule="evenodd" clip-rule="evenodd" d="M128.055 22.8309C127.311 22.8309 126.763 21.9124 126.763 20.6325C126.763 19.3894 127.325 18.4347 128.029 18.4347C128.932 18.4347 129.317 19.2407 129.317 20.6325C129.317 22.0805 128.962 22.8309 128.055 22.8309ZM128.945 15.7983C127.277 15.7983 126.512 17.0155 126.18 17.7089C125.961 18.167 125.972 18.3019 125.811 18.3019C125.58 18.3019 125.772 17.9339 125.877 17.5014C126.082 16.6495 125.926 15.9987 125.926 15.9987H123.549V27.1016H126.794V23.5816C127.177 24.2156 127.888 24.8929 128.985 24.8929C131.332 24.8929 132.513 22.9605 132.513 20.3499C132.513 17.3911 131.099 15.7983 128.946 15.7983" fill="white"/>
<path fill-rule="evenodd" clip-rule="evenodd" d="M42.5165 18.4254C42.7347 18.4002 42.9437 18.3989 43.136 18.4254C43.2473 18.1771 43.2662 17.7494 43.1662 17.2835C43.0177 16.591 42.8164 16.172 42.4006 16.2374C41.9847 16.3027 41.9694 16.8044 42.1182 17.4966C42.2019 17.8862 42.3507 18.2192 42.5165 18.4254Z" fill="white"/>
<path fill-rule="evenodd" clip-rule="evenodd" d="M38.9486 18.9734C39.2458 19.1005 39.4289 19.1849 39.5003 19.1111C39.5465 19.0652 39.5325 18.9776 39.4614 18.8648C39.3146 18.6317 39.0127 18.3951 38.6921 18.2622C38.0371 17.9877 37.2554 18.0789 36.6525 18.5004C36.4536 18.6424 36.2649 18.8389 36.2918 18.9582C36.3004 18.9967 36.3303 19.0258 36.4001 19.0355C36.5642 19.0536 37.1375 18.7717 37.7982 18.7322C38.2643 18.7044 38.6509 18.8464 38.9486 18.9734Z" fill="white"/>
<path fill-rule="evenodd" clip-rule="evenodd" d="M38.3514 19.3058C37.9638 19.3653 37.7502 19.4898 37.613 19.6052C37.4961 19.7047 37.4237 19.815 37.4243 19.8923C37.4247 19.9291 37.4409 19.9505 37.4539 19.9611C37.4715 19.9763 37.4924 19.9847 37.5177 19.9847C37.605 19.9847 37.8014 19.9081 37.8014 19.9081C38.3405 19.7203 38.6962 19.7432 39.0487 19.782C39.2433 19.8034 39.3357 19.815 39.3782 19.75C39.3908 19.7313 39.4061 19.6908 39.3672 19.6294C39.2766 19.4862 38.8849 19.2441 38.3514 19.3058Z" fill="white"/>
<path fill-rule="evenodd" clip-rule="evenodd" d="M41.3125 20.5254C41.5756 20.6511 41.8653 20.6017 41.9596 20.4151C42.0539 20.2286 41.9171 19.9751 41.654 19.8494C41.3909 19.7236 41.1012 19.7731 41.0069 19.9596C40.9126 20.1465 41.0494 20.3996 41.3125 20.5254Z" fill="white"/>
<path fill-rule="evenodd" clip-rule="evenodd" d="M43.0042 19.0871C42.7906 19.0836 42.6132 19.3118 42.6082 19.5973C42.6032 19.8827 42.7727 20.1165 42.9862 20.12C43.1998 20.1236 43.3772 19.8953 43.3822 19.6099C43.3872 19.3247 43.2178 19.0907 43.0042 19.0871Z" fill="white"/>
<path fill-rule="evenodd" clip-rule="evenodd" d="M28.6476 24.2306C28.5944 24.1656 28.5071 24.1853 28.4223 24.2047C28.3632 24.2183 28.2965 24.2331 28.223 24.2322C28.0659 24.2293 27.9327 24.164 27.858 24.0521C27.7607 23.9066 27.7663 23.6897 27.8736 23.4414L27.9237 23.3302C28.0952 22.9558 28.3818 22.3296 28.0599 21.7328C27.8175 21.2834 27.4222 21.0037 26.9468 20.9449C26.4904 20.8887 26.0207 21.0532 25.7211 21.3749C25.2484 21.8825 25.1743 22.5733 25.2657 22.8174C25.2992 22.9067 25.3517 22.9316 25.3896 22.9367C25.47 22.9471 25.5889 22.8902 25.6633 22.6952L25.6845 22.6319C25.7178 22.5287 25.7796 22.3367 25.8809 22.1828C26.0031 21.9972 26.1931 21.8695 26.4163 21.8227C26.6435 21.7751 26.8761 21.8175 27.0707 21.9416C27.4019 22.1524 27.5295 22.5475 27.388 22.9241C27.3149 23.1191 27.196 23.4918 27.2222 23.798C27.2753 24.4177 27.667 24.6667 28.0188 24.6932C28.3609 24.7058 28.6001 24.5186 28.6605 24.3822C28.6961 24.3014 28.6662 24.2522 28.6466 24.2312" fill="white"/>
<path fill-rule="evenodd" clip-rule="evenodd" d="M31.9018 12.8474C33.0179 11.5924 34.3914 10.5013 35.6221 9.88865C35.6647 9.86732 35.7098 9.91226 35.6869 9.95299C35.5893 10.1253 35.4009 10.4942 35.3415 10.7738C35.3322 10.8175 35.381 10.8501 35.4188 10.8252C36.1845 10.3173 37.5162 9.77291 38.6845 9.70308C38.7346 9.70017 38.7589 9.76257 38.719 9.79264C38.5413 9.92519 38.347 10.1088 38.2051 10.2944C38.1809 10.3261 38.2038 10.3713 38.2443 10.3717C39.0645 10.3775 40.2208 10.6568 40.9745 11.0684C41.0253 11.0962 40.9891 11.1922 40.932 11.1796C39.7916 10.9251 37.9251 10.7321 35.9859 11.1925C34.2549 11.6034 32.9335 12.238 31.9699 12.9202C31.921 12.9548 31.8622 12.8917 31.9018 12.8474ZM37.4597 25.0072L37.4601 25.0079L37.4607 25.0091L37.4597 25.0072ZM42.0617 25.5358C42.0949 25.5222 42.1175 25.4857 42.1139 25.4491C42.1092 25.4042 42.068 25.3716 42.0218 25.3761C42.0218 25.3761 39.6405 25.7191 37.3906 24.9177C37.6358 24.1424 38.2872 24.4224 39.2721 24.4996C41.0472 24.6028 42.6384 24.3503 43.8143 24.0218C44.8331 23.7373 46.1714 23.1761 47.2108 22.3775C47.5612 23.1269 47.6851 23.952 47.6851 23.952C47.6851 23.952 47.9565 23.9048 48.1834 24.0406C48.3976 24.1689 48.5548 24.4356 48.4475 25.1255C48.2289 26.4142 47.6662 27.4604 46.7201 28.4228C46.1442 29.0261 45.4453 29.5505 44.6454 29.9319C44.2205 30.1492 43.7684 30.337 43.2904 30.4887C39.7242 31.6225 36.0736 30.3762 34.897 27.6999C34.803 27.4988 34.7236 27.288 34.6612 27.0679C34.1599 25.3043 34.5854 23.1883 35.9161 21.8564C35.9982 21.7717 36.0819 21.6711 36.0819 21.5454C36.0819 21.4403 36.0131 21.3294 35.9537 21.2505C35.4879 20.5933 33.8752 19.4734 34.1991 17.306C34.4316 15.749 35.8307 14.6524 37.1352 14.7174L37.4657 14.7358C38.0311 14.7685 38.524 14.8389 38.9894 14.858C39.7684 14.891 40.4686 14.7807 41.2984 14.108C41.5781 13.881 41.8026 13.6841 42.1823 13.6217C42.2221 13.6149 42.3215 13.5804 42.5198 13.5894C42.7224 13.6001 42.9151 13.6541 43.0881 13.7663C43.7531 14.1969 43.8475 15.2401 43.882 16.0031C43.9016 16.4386 43.9558 17.4925 43.9744 17.7951C44.0166 18.487 44.2036 18.5843 44.5816 18.7055C44.7942 18.7738 44.9915 18.8245 45.2825 18.904C46.1628 19.1446 46.6846 19.3887 47.0138 19.7023C47.2101 19.8982 47.3015 20.1064 47.3297 20.3049C47.4333 21.042 46.7417 21.9524 44.9104 22.7797C42.9088 23.684 40.4802 23.9128 38.8024 23.7308L38.2144 23.6662C36.8725 23.4903 36.1068 25.1782 36.9123 26.335C37.4315 27.0805 38.8456 27.5654 40.2603 27.5658C43.504 27.5661 45.9973 26.2179 46.9248 25.0538L46.9988 24.9509C47.0447 24.884 47.0068 24.8472 46.95 24.885C46.1923 25.3897 42.8267 27.3931 39.2266 26.7902C39.2266 26.7902 38.7891 26.72 38.3898 26.569C38.0726 26.4488 37.4083 26.1513 37.3275 25.4883C40.2327 26.3628 42.0617 25.5358 42.0617 25.5358ZM26.1043 18.8161C25.0938 19.0072 24.2033 19.5645 23.6588 20.3346C23.3333 20.0705 22.7271 19.559 22.6198 19.3596C21.7505 17.7528 23.5685 14.6291 24.8387 12.8649C27.9778 8.50527 32.894 5.20541 35.1697 5.80415C35.5398 5.90599 36.7652 7.28872 36.7652 7.28872C36.7652 7.28872 34.4901 8.51724 32.3804 10.2297C29.5377 12.3599 27.3908 15.4561 26.1043 18.8161ZM27.802 26.1888C27.6492 26.2144 27.4931 26.2244 27.3357 26.2205C25.8153 26.1808 24.1734 24.8488 24.0103 23.2692C23.8299 21.5231 24.7467 20.1794 26.3697 19.8607C26.5637 19.8225 26.7982 19.8005 27.051 19.8135C27.9605 19.862 29.3005 20.5415 29.6064 22.4697C29.8775 24.1773 29.447 25.916 27.802 26.1888ZM48.3956 23.0969C48.3827 23.0519 48.2977 22.7503 48.1811 22.3866C48.0645 22.0225 47.9439 21.7668 47.9439 21.7668C48.4116 21.0856 48.4199 20.4762 48.3574 20.1313C48.291 19.7036 48.108 19.3392 47.7393 18.9622C47.3705 18.5856 46.6162 18.1996 45.5562 17.9099L45.0001 17.7596C44.9975 17.7373 44.9709 16.4835 44.947 15.9453C44.9294 15.556 44.8952 14.9485 44.7015 14.3504C44.4706 13.5406 44.0687 12.8319 43.5668 12.3787C44.952 10.9814 45.8166 9.44186 45.8143 8.12153C45.8103 5.58205 42.6058 4.81358 38.6566 6.40516L37.8198 6.75076C37.8162 6.7472 36.3071 5.30628 36.2845 5.28688C31.7819 1.46457 17.7042 16.694 22.2049 20.3928L23.1885 21.204C22.9333 21.8473 22.833 22.5844 22.9151 23.3768C23.02 24.3949 23.5595 25.3706 24.4341 26.1245C25.2642 26.8403 26.3558 27.2935 27.4147 27.2926C29.1663 31.2209 33.1684 33.6308 37.8607 33.7665C42.8941 33.912 47.1194 31.6134 48.8899 27.4843C49.0058 27.1946 49.4971 25.8888 49.4971 24.736C49.4971 23.5776 48.8242 23.0969 48.3956 23.0969Z" fill="white"/>
</g>
<defs>
<clipPath id="clip0_623_1045">
<rect width="111.612" height="31.0364" fill="white" transform="translate(21.3286 2.98413)"/>
</clipPath>
</defs>
</svg>
