<svg width="611" height="307" viewBox="0 0 611 307" fill="none" xmlns="http://www.w3.org/2000/svg">
<rect x="77.8926" y="43.5" width="456" height="72" rx="15.5" stroke="#E6E6E6"/>
<path d="M262.893 119C261.236 119 259.893 117.657 259.893 116C259.893 114.343 261.236 113 262.893 113V119ZM386.893 119H262.893V113H386.893V119Z" fill="url(#paint0_linear_811_381)"/>
<g filter="url(#filter0_d_811_381)">
<rect x="27.3926" y="17" width="188.072" height="53.2018" rx="6.65022" fill="white" shape-rendering="crispEdges"/>
<rect x="36.2598" y="25.8672" width="35.4678" height="35.4678" rx="6.65022" fill="url(#paint1_linear_811_381)"/>
<path fill-rule="evenodd" clip-rule="evenodd" d="M54.7209 34.1343H54.7209H54.7209H53.2624H53.2624H53.2624C52.6537 34.1343 52.3102 34.1343 52.0146 34.1548C47.7623 34.4499 44.3782 37.8341 44.083 42.0864C44.0625 42.382 44.0625 42.7254 44.0625 43.3342V43.3342V43.3342V43.4072V43.4072V43.4072C44.0625 44.016 44.0625 44.3594 44.083 44.655C44.1881 46.1697 44.6857 47.5753 45.4749 48.7698L44.2702 53.0689L48.8535 51.7401C49.8188 52.2124 50.8866 52.5083 52.0146 52.5866C52.3102 52.6071 52.6537 52.6071 53.2624 52.6071H54.7209C55.3296 52.6071 55.6731 52.6071 55.9687 52.5866C60.221 52.2915 63.6051 48.9073 63.9003 44.655C63.9208 44.3594 63.9208 44.016 63.9208 43.4072V43.3342C63.9208 42.7254 63.9208 42.382 63.9003 42.0864C63.6051 37.8341 60.221 34.4499 55.9687 34.1548C55.6731 34.1343 55.3296 34.1343 54.7209 34.1343ZM49.8342 45.2178H58.147V46.6032H49.8342V45.2178ZM49.8342 40.5996H54.9142V41.985H49.8342V40.5996Z" fill="white"/>
<path d="M81.9598 50.1011V36.8893H86.7656C87.6523 36.8893 88.4326 37.0548 89.1065 37.3859C89.7804 37.7051 90.3065 38.178 90.6848 38.8046C91.075 39.4193 91.2701 40.1583 91.2701 41.0213C91.2701 41.9316 91.0395 42.7119 90.5784 43.3622C90.1292 44.0124 89.5203 44.4853 88.7518 44.7809L91.8021 50.1011H89.4257L86.1804 44.3375L87.5459 45.1356H84.0524V50.1011H81.9598ZM84.0524 43.2735H86.8011C87.2858 43.2735 87.7055 43.1789 88.0602 42.9898C88.4149 42.8006 88.6868 42.5405 88.876 42.2095C89.077 41.8666 89.1775 41.4647 89.1775 41.0036C89.1775 40.5425 89.077 40.1464 88.876 39.8154C88.6868 39.4725 88.4149 39.2124 88.0602 39.0351C87.7055 38.8459 87.2858 38.7514 86.8011 38.7514H84.0524V43.2735ZM97.3355 50.3139C96.3778 50.3139 95.5266 50.0952 94.7818 49.6577C94.0488 49.2085 93.4754 48.6055 93.0616 47.8489C92.6478 47.0804 92.4409 46.2233 92.4409 45.2774C92.4409 44.308 92.6478 43.4509 93.0616 42.706C93.4872 41.9612 94.0547 41.376 94.7641 40.9504C95.4734 40.5129 96.2774 40.2942 97.1759 40.2942C97.8971 40.2942 98.5414 40.4184 99.1089 40.6666C99.6764 40.9149 100.155 41.2578 100.545 41.6952C100.935 42.1208 101.231 42.6114 101.432 43.1671C101.645 43.7228 101.751 44.3139 101.751 44.9405C101.751 45.0942 101.745 45.2538 101.733 45.4193C101.722 45.5848 101.698 45.7385 101.663 45.8804H94.0192V44.2843H100.528L99.57 45.0114C99.6882 44.4321 99.6468 43.9178 99.4458 43.4686C99.2567 43.0075 98.9611 42.6469 98.5591 42.3868C98.169 42.1149 97.7079 41.9789 97.1759 41.9789C96.6439 41.9789 96.1709 42.1149 95.7572 42.3868C95.3434 42.6469 95.0242 43.0252 94.7995 43.5218C94.5749 44.0065 94.4862 44.5976 94.5335 45.2952C94.4744 45.9454 94.5631 46.5129 94.7995 46.9976C95.0478 47.4824 95.3907 47.8607 95.8281 48.1326C96.2774 48.4045 96.7857 48.5405 97.3532 48.5405C97.9325 48.5405 98.4232 48.4104 98.8251 48.1503C99.2389 47.8902 99.564 47.5533 99.8005 47.1395L101.432 47.9375C101.243 48.3868 100.947 48.7947 100.545 49.1612C100.155 49.5159 99.6823 49.7996 99.1266 50.0124C98.5828 50.2134 97.9857 50.3139 97.3355 50.3139ZM111.262 53.6479V48.1503L111.581 48.5228C111.25 49.1021 110.777 49.5454 110.162 49.8528C109.547 50.1602 108.873 50.3139 108.14 50.3139C107.218 50.3139 106.391 50.0952 105.658 49.6577C104.936 49.2085 104.363 48.6055 103.937 47.8489C103.524 47.0922 103.317 46.241 103.317 45.2952C103.317 44.3494 103.53 43.4981 103.955 42.7415C104.381 41.9848 104.954 41.3878 105.675 40.9504C106.397 40.5129 107.212 40.2942 108.123 40.2942C108.891 40.2942 109.571 40.4479 110.162 40.7553C110.753 41.0627 111.22 41.4883 111.563 42.0321L111.35 42.4932V40.507H113.248V53.6479H111.262ZM108.335 48.4518C108.891 48.4518 109.388 48.3159 109.825 48.0439C110.274 47.772 110.623 47.3996 110.871 46.9267C111.132 46.442 111.262 45.8981 111.262 45.2952C111.262 44.6922 111.132 44.1543 110.871 43.6814C110.623 43.2085 110.274 42.8361 109.825 42.5642C109.388 42.2922 108.891 42.1563 108.335 42.1563C107.78 42.1563 107.277 42.2922 106.828 42.5642C106.379 42.8361 106.03 43.2085 105.782 43.6814C105.534 44.1543 105.409 44.6922 105.409 45.2952C105.409 45.8981 105.534 46.442 105.782 46.9267C106.03 47.3996 106.373 47.772 106.81 48.0439C107.26 48.3159 107.768 48.4518 108.335 48.4518ZM119.01 50.3139C118.289 50.3139 117.656 50.1543 117.112 49.8351C116.569 49.504 116.143 49.0489 115.836 48.4696C115.54 47.8784 115.392 47.1986 115.392 46.4302V40.507H117.396V46.2528C117.396 46.6902 117.485 47.0745 117.662 47.4055C117.839 47.7366 118.088 47.9966 118.407 48.1858C118.726 48.3631 119.093 48.4518 119.506 48.4518C119.932 48.4518 120.305 48.3572 120.624 48.1681C120.943 47.9789 121.191 47.7129 121.369 47.37C121.558 47.0272 121.652 46.6252 121.652 46.1641V40.507H123.638V50.1011H121.741V48.2213L121.954 48.4696C121.729 49.0607 121.357 49.5159 120.837 49.8351C120.316 50.1543 119.707 50.3139 119.01 50.3139ZM125.978 50.1011V40.507H127.982V50.1011H125.978ZM125.978 39.1947V36.8893H127.982V39.1947H125.978ZM130.325 50.1011V40.507H132.24V42.44L132.063 42.1563C132.276 41.5297 132.619 41.0804 133.092 40.8085C133.565 40.5248 134.132 40.3829 134.794 40.3829H135.379V42.2095H134.546C133.884 42.2095 133.346 42.4164 132.932 42.8302C132.53 43.2321 132.329 43.8114 132.329 44.5681V50.1011H130.325ZM141.255 50.3139C140.297 50.3139 139.446 50.0952 138.701 49.6577C137.968 49.2085 137.395 48.6055 136.981 47.8489C136.567 47.0804 136.36 46.2233 136.36 45.2774C136.36 44.308 136.567 43.4509 136.981 42.706C137.406 41.9612 137.974 41.376 138.683 40.9504C139.393 40.5129 140.197 40.2942 141.095 40.2942C141.816 40.2942 142.461 40.4184 143.028 40.6666C143.596 40.9149 144.074 41.2578 144.464 41.6952C144.855 42.1208 145.15 42.6114 145.351 43.1671C145.564 43.7228 145.67 44.3139 145.67 44.9405C145.67 45.0942 145.664 45.2538 145.653 45.4193C145.641 45.5848 145.617 45.7385 145.582 45.8804H137.938V44.2843H144.447L143.489 45.0114C143.607 44.4321 143.566 43.9178 143.365 43.4686C143.176 43.0075 142.88 42.6469 142.478 42.3868C142.088 42.1149 141.627 41.9789 141.095 41.9789C140.563 41.9789 140.09 42.1149 139.676 42.3868C139.263 42.6469 138.943 43.0252 138.719 43.5218C138.494 44.0065 138.405 44.5976 138.453 45.2952C138.394 45.9454 138.482 46.5129 138.719 46.9976C138.967 47.4824 139.31 47.8607 139.747 48.1326C140.197 48.4045 140.705 48.5405 141.272 48.5405C141.852 48.5405 142.342 48.4104 142.744 48.1503C143.158 47.8902 143.483 47.5533 143.72 47.1395L145.351 47.9375C145.162 48.3868 144.866 48.7947 144.464 49.1612C144.074 49.5159 143.601 49.7996 143.046 50.0124C142.502 50.2134 141.905 50.3139 141.255 50.3139ZM147.626 50.1011V40.507H149.541V42.5819L149.293 42.2627C149.494 41.6124 149.861 41.1218 150.393 40.7908C150.925 40.4597 151.533 40.2942 152.219 40.2942C152.988 40.2942 153.667 40.5011 154.259 40.9149C154.862 41.3169 155.264 41.8548 155.465 42.5287L154.897 42.5819C155.181 41.8134 155.612 41.24 156.192 40.8617C156.783 40.4834 157.457 40.2942 158.213 40.2942C158.875 40.2942 159.472 40.4479 160.004 40.7553C160.548 41.0627 160.98 41.4883 161.299 42.0321C161.618 42.576 161.778 43.1967 161.778 43.8942V50.1011H159.774V44.444C159.774 43.9592 159.685 43.5513 159.508 43.2203C159.342 42.8775 159.106 42.6174 158.798 42.44C158.503 42.2509 158.154 42.1563 157.752 42.1563C157.35 42.1563 156.996 42.2509 156.688 42.44C156.381 42.6174 156.138 42.8775 155.961 43.2203C155.784 43.5632 155.695 43.971 155.695 44.444V50.1011H153.709V44.444C153.709 43.9592 153.62 43.5513 153.443 43.2203C153.277 42.8775 153.041 42.6174 152.733 42.44C152.438 42.2509 152.083 42.1563 151.669 42.1563C151.267 42.1563 150.913 42.2509 150.605 42.44C150.298 42.6174 150.056 42.8775 149.878 43.2203C149.713 43.5632 149.63 43.971 149.63 44.444V50.1011H147.626ZM168.427 50.3139C167.469 50.3139 166.618 50.0952 165.873 49.6577C165.14 49.2085 164.567 48.6055 164.153 47.8489C163.739 47.0804 163.532 46.2233 163.532 45.2774C163.532 44.308 163.739 43.4509 164.153 42.706C164.579 41.9612 165.146 41.376 165.856 40.9504C166.565 40.5129 167.369 40.2942 168.267 40.2942C168.989 40.2942 169.633 40.4184 170.2 40.6666C170.768 40.9149 171.247 41.2578 171.637 41.6952C172.027 42.1208 172.323 42.6114 172.524 43.1671C172.736 43.7228 172.843 44.3139 172.843 44.9405C172.843 45.0942 172.837 45.2538 172.825 45.4193C172.813 45.5848 172.79 45.7385 172.754 45.8804H165.111V44.2843H171.619L170.662 45.0114C170.78 44.4321 170.738 43.9178 170.537 43.4686C170.348 43.0075 170.053 42.6469 169.651 42.3868C169.261 42.1149 168.799 41.9789 168.267 41.9789C167.735 41.9789 167.263 42.1149 166.849 42.3868C166.435 42.6469 166.116 43.0252 165.891 43.5218C165.666 44.0065 165.578 44.5976 165.625 45.2952C165.566 45.9454 165.655 46.5129 165.891 46.9976C166.139 47.4824 166.482 47.8607 166.92 48.1326C167.369 48.4045 167.877 48.5405 168.445 48.5405C169.024 48.5405 169.515 48.4104 169.917 48.1503C170.33 47.8902 170.656 47.5533 170.892 47.1395L172.524 47.9375C172.334 48.3868 172.039 48.7947 171.637 49.1612C171.247 49.5159 170.774 49.7996 170.218 50.0124C169.674 50.2134 169.077 50.3139 168.427 50.3139ZM174.798 50.1011V40.507H176.714V42.3868L176.483 42.1385C176.72 41.5356 177.098 41.0804 177.618 40.773C178.138 40.4538 178.741 40.2942 179.427 40.2942C180.136 40.2942 180.763 40.4479 181.307 40.7553C181.851 41.0627 182.276 41.4883 182.584 42.0321C182.891 42.576 183.045 43.2026 183.045 43.9119V50.1011H181.059V44.444C181.059 43.9592 180.97 43.5513 180.793 43.2203C180.615 42.8775 180.361 42.6174 180.03 42.44C179.711 42.2509 179.344 42.1563 178.931 42.1563C178.517 42.1563 178.144 42.2509 177.813 42.44C177.494 42.6174 177.246 42.8775 177.068 43.2203C176.891 43.5632 176.802 43.971 176.802 44.444V50.1011H174.798ZM189.339 50.2075C188.334 50.2075 187.554 49.9237 186.998 49.3562C186.443 48.7888 186.165 47.9907 186.165 46.9622V42.3159H184.48V40.507H184.746C185.195 40.507 185.544 40.377 185.792 40.1169C186.041 39.8568 186.165 39.5021 186.165 39.0528V38.308H188.169V40.507H190.35V42.3159H188.169V46.8735C188.169 47.2045 188.222 47.4883 188.328 47.7247C188.435 47.9494 188.606 48.1267 188.843 48.2567C189.079 48.375 189.386 48.4341 189.765 48.4341C189.859 48.4341 189.966 48.4282 190.084 48.4164C190.202 48.4045 190.315 48.3927 190.421 48.3809V50.1011C190.255 50.1247 190.072 50.1484 189.871 50.172C189.67 50.1957 189.493 50.2075 189.339 50.2075ZM195.923 50.3139C194.942 50.3139 194.079 50.0715 193.334 49.5868C192.601 49.1021 192.087 48.4518 191.791 47.6361L193.334 46.909C193.594 47.4528 193.949 47.8843 194.398 48.2035C194.859 48.5228 195.368 48.6824 195.923 48.6824C196.396 48.6824 196.78 48.576 197.076 48.3631C197.372 48.1503 197.519 47.8607 197.519 47.4942C197.519 47.2577 197.454 47.0686 197.324 46.9267C197.194 46.773 197.029 46.6489 196.828 46.5543C196.639 46.4597 196.444 46.3888 196.243 46.3415L194.735 45.9159C193.908 45.6794 193.287 45.3247 192.873 44.8518C192.471 44.3671 192.27 43.8055 192.27 43.1671C192.27 42.5878 192.418 42.0853 192.713 41.6597C193.009 41.2223 193.417 40.8853 193.937 40.6489C194.457 40.4124 195.043 40.2942 195.693 40.2942C196.568 40.2942 197.348 40.5129 198.034 40.9504C198.719 41.376 199.204 41.973 199.488 42.7415L197.945 43.4686C197.756 43.0075 197.454 42.641 197.041 42.3691C196.639 42.0972 196.183 41.9612 195.675 41.9612C195.238 41.9612 194.889 42.0676 194.629 42.2804C194.369 42.4814 194.239 42.7474 194.239 43.0784C194.239 43.3031 194.298 43.4922 194.416 43.6459C194.534 43.7878 194.688 43.906 194.877 44.0006C195.066 44.0834 195.261 44.1543 195.462 44.2134L197.023 44.6745C197.815 44.8991 198.424 45.2538 198.849 45.7385C199.275 46.2114 199.488 46.7789 199.488 47.441C199.488 48.0085 199.334 48.5109 199.027 48.9484C198.731 49.374 198.317 49.7109 197.785 49.9592C197.253 50.1957 196.633 50.3139 195.923 50.3139Z" fill="#141414"/>
</g>
<path d="M259.464 46.6011C261.121 46.6011 262.464 45.2579 262.464 43.6011C262.464 41.9442 261.121 40.6011 259.464 40.6011V46.6011ZM227.464 46.6011H259.464V40.6011H227.464V46.6011Z" fill="url(#paint2_linear_811_381)"/>
<g filter="url(#filter1_d_811_381)">
<rect x="271.464" y="17.3408" width="121.072" height="52.5197" rx="6.65022" fill="white" shape-rendering="crispEdges"/>
<rect x="280.332" y="26.208" width="35.4678" height="34.7858" rx="6.65022" fill="#1E1E1E"/>
<rect width="30.6933" height="30.6933" transform="translate(282.719 28.2544)" fill="#1E1E1E"/>
<g clip-path="url(#clip0_811_381)">
<path d="M298.064 43.7706C298.064 42.9114 298.406 42.0873 299.013 41.4797C299.621 40.8721 300.445 40.5308 301.304 40.5308C302.164 40.5308 302.988 40.8721 303.595 41.4797C304.203 42.0873 304.544 42.9114 304.544 43.7706C304.544 44.6299 304.203 45.4539 303.595 46.0615C302.988 46.6691 302.164 47.0105 301.304 47.0105C300.445 47.0105 299.621 46.6691 299.013 46.0615C298.406 45.4539 298.064 44.6299 298.064 43.7706Z" fill="#1ABCFE"/>
<path d="M291.584 50.2501C291.584 49.3908 291.925 48.5668 292.533 47.9592C293.141 47.3516 293.965 47.0103 294.824 47.0103L298.064 47.0103V50.2501C298.064 51.1094 297.722 51.9334 297.115 52.541C296.507 53.1486 295.683 53.49 294.824 53.49C293.965 53.49 293.141 53.1486 292.533 52.541C291.925 51.9334 291.584 51.1094 291.584 50.2501V50.2501Z" fill="#0ACF83"/>
<path d="M298.064 34.0513V40.531L301.304 40.531C302.164 40.531 302.988 40.1896 303.595 39.582C304.203 38.9745 304.544 38.1504 304.544 37.2911C304.544 36.4319 304.203 35.6078 303.595 35.0002C302.988 34.3926 302.164 34.0513 301.304 34.0513L298.064 34.0513Z" fill="#FF7262"/>
<path d="M291.584 37.2911C291.584 38.1504 291.925 38.9745 292.533 39.582C293.141 40.1896 293.965 40.531 294.824 40.531L298.064 40.531V34.0513H294.824C293.965 34.0513 293.141 34.3926 292.533 35.0002C291.925 35.6078 291.584 36.4319 291.584 37.2911V37.2911Z" fill="#F24E1E"/>
<path d="M291.584 43.7706C291.584 44.6299 291.925 45.4539 292.533 46.0615C293.141 46.6691 293.965 47.0105 294.824 47.0105L298.064 47.0105V40.5308L294.824 40.5308C293.965 40.5308 293.141 40.8721 292.533 41.4797C291.925 42.0873 291.584 42.9114 291.584 43.7706V43.7706Z" fill="#A259FF"/>
</g>
<path d="M326.032 50.1006V36.8888H334.632V38.7509H328.124V42.7233H333.923V44.5853H328.124V50.1006H326.032ZM336.193 50.1006V40.5065H338.197V50.1006H336.193ZM336.193 39.1942V36.8888H338.197V39.1942H336.193ZM345.168 54.002C344.471 54.002 343.826 53.8897 343.235 53.6651C342.644 53.4405 342.136 53.1272 341.71 52.7252C341.285 52.3351 340.965 51.874 340.752 51.342L342.597 50.5794C342.762 51.0287 343.064 51.4011 343.501 51.6966C343.951 51.9922 344.5 52.14 345.15 52.14C345.659 52.14 346.114 52.0395 346.516 51.8385C346.918 51.6493 347.237 51.3656 347.474 50.9873C347.71 50.6208 347.828 50.1774 347.828 49.6572V47.4937L348.183 47.9016C347.852 48.5164 347.391 48.9833 346.8 49.3026C346.22 49.6218 345.564 49.7814 344.831 49.7814C343.945 49.7814 343.147 49.5745 342.437 49.1607C341.728 48.7469 341.166 48.1794 340.752 47.4582C340.351 46.7371 340.15 45.9272 340.15 45.0287C340.15 44.1183 340.351 43.3085 340.752 42.5991C341.166 41.8898 341.722 41.3282 342.419 40.9144C343.117 40.5006 343.915 40.2937 344.814 40.2937C345.547 40.2937 346.197 40.4533 346.764 40.7725C347.344 41.0799 347.816 41.5292 348.183 42.1203L347.917 42.6169V40.5065H349.815V49.6572C349.815 50.4848 349.614 51.2237 349.212 51.874C348.821 52.536 348.278 53.0562 347.58 53.4346C346.883 53.8129 346.079 54.002 345.168 54.002ZM345.062 47.9193C345.594 47.9193 346.067 47.7952 346.481 47.5469C346.894 47.2868 347.219 46.9439 347.456 46.5183C347.704 46.0809 347.828 45.5903 347.828 45.0464C347.828 44.5026 347.704 44.0119 347.456 43.5745C347.208 43.1371 346.877 42.7942 346.463 42.5459C346.049 42.2858 345.582 42.1558 345.062 42.1558C344.518 42.1558 344.033 42.2858 343.608 42.5459C343.182 42.7942 342.845 43.1371 342.597 43.5745C342.36 44.0001 342.242 44.4908 342.242 45.0464C342.242 45.5784 342.36 46.0632 342.597 46.5006C342.845 46.938 343.182 47.2868 343.608 47.5469C344.033 47.7952 344.518 47.9193 345.062 47.9193ZM352.16 50.1006V40.5065H354.076V42.5814L353.827 42.2622C354.028 41.6119 354.395 41.1213 354.927 40.7903C355.459 40.4592 356.068 40.2937 356.753 40.2937C357.522 40.2937 358.202 40.5006 358.793 40.9144C359.396 41.3164 359.798 41.8543 359.999 42.5282L359.431 42.5814C359.715 41.8129 360.146 41.2395 360.726 40.8612C361.317 40.4829 361.991 40.2937 362.747 40.2937C363.409 40.2937 364.007 40.4474 364.539 40.7548C365.082 41.0622 365.514 41.4878 365.833 42.0317C366.152 42.5755 366.312 43.1962 366.312 43.8937V50.1006H364.308V44.4435C364.308 43.9587 364.219 43.5509 364.042 43.2198C363.876 42.877 363.64 42.6169 363.333 42.4395C363.037 42.2504 362.688 42.1558 362.286 42.1558C361.884 42.1558 361.53 42.2504 361.222 42.4395C360.915 42.6169 360.673 42.877 360.495 43.2198C360.318 43.5627 360.229 43.9706 360.229 44.4435V50.1006H358.243V44.4435C358.243 43.9587 358.154 43.5509 357.977 43.2198C357.811 42.877 357.575 42.6169 357.268 42.4395C356.972 42.2504 356.617 42.1558 356.204 42.1558C355.802 42.1558 355.447 42.2504 355.14 42.4395C354.832 42.6169 354.59 42.877 354.412 43.2198C354.247 43.5627 354.164 43.9706 354.164 44.4435V50.1006H352.16ZM371.33 50.3134C370.679 50.3134 370.106 50.2011 369.609 49.9764C369.125 49.74 368.746 49.4208 368.474 49.0188C368.203 48.605 368.067 48.1203 368.067 47.5646C368.067 47.0444 368.179 46.5774 368.404 46.1637C368.64 45.7499 369.001 45.4011 369.485 45.1174C369.97 44.8336 370.579 44.6326 371.312 44.5144L374.646 43.9646V45.543L371.702 46.0573C371.17 46.1518 370.78 46.3233 370.532 46.5715C370.283 46.808 370.159 47.1154 370.159 47.4937C370.159 47.8602 370.295 48.1617 370.567 48.3981C370.851 48.6228 371.211 48.7351 371.649 48.7351C372.193 48.7351 372.666 48.6168 373.068 48.3804C373.481 48.1439 373.801 47.8306 374.025 47.4405C374.25 47.0385 374.362 46.5952 374.362 46.1105V43.6454C374.362 43.1725 374.185 42.7883 373.83 42.4927C373.487 42.1853 373.026 42.0317 372.447 42.0317C371.915 42.0317 371.448 42.1735 371.046 42.4573C370.656 42.7292 370.366 43.0839 370.177 43.5213L368.51 42.6878C368.687 42.2149 368.977 41.8011 369.379 41.4464C369.781 41.0799 370.248 40.7962 370.78 40.5952C371.324 40.3942 371.897 40.2937 372.5 40.2937C373.257 40.2937 373.925 40.4356 374.504 40.7193C375.095 41.0031 375.55 41.3991 375.87 41.9075C376.201 42.4041 376.366 42.9834 376.366 43.6454V50.1006H374.451V48.3627L374.859 48.4159C374.634 48.806 374.344 49.143 373.99 49.4267C373.647 49.7104 373.251 49.9292 372.802 50.0829C372.364 50.2365 371.873 50.3134 371.33 50.3134Z" fill="#141414"/>
</g>
<path d="M436.536 46.6011C438.193 46.6011 439.536 45.2579 439.536 43.6011C439.536 41.9442 438.193 40.6011 436.536 40.6011V46.6011ZM404.536 46.6011H436.536V40.6011H404.536V46.6011Z" fill="url(#paint3_linear_811_381)"/>
<g filter="url(#filter2_d_811_381)">
<rect x="448.536" y="17" width="135.072" height="53.2018" rx="6.65022" fill="white" shape-rendering="crispEdges"/>
<rect x="457.403" y="25.8672" width="35.4678" height="35.4678" rx="6.65022" fill="#F8F8F8"/>
<path d="M474.304 32.1913C474.479 32.1913 474.567 32.2791 474.742 32.3668C473.689 32.8057 472.636 33.9467 472.109 36.4044L470.178 36.931C470.793 35.1756 472.021 32.1913 474.304 32.1913ZM475.269 33.069C475.445 33.5957 475.62 34.2101 475.62 35.1756C475.62 35.2633 475.62 35.2633 475.62 35.3511L473.075 36.0533C473.601 34.2101 474.479 33.4201 475.269 33.069ZM477.551 34.6489L476.41 35C476.41 34.9122 476.41 34.8245 476.41 34.7367C476.41 33.9467 476.322 33.3323 476.147 32.8057C476.761 32.9812 477.288 33.7712 477.551 34.6489ZM483.256 36.0533C483.256 35.9655 483.169 35.8777 483.081 35.8777C482.905 35.8777 481.062 35.7022 481.062 35.7022C481.062 35.7022 479.745 34.3856 479.57 34.2978C479.394 34.1223 479.131 34.2101 479.043 34.2101C479.043 34.2101 478.78 34.2978 478.341 34.4734C477.902 33.2446 477.112 32.1035 475.796 32.1035H475.708C475.357 31.5769 474.83 31.4013 474.391 31.4013C471.232 31.3136 469.739 35.2633 469.213 37.2821C468.511 37.4577 467.808 37.721 467.018 37.9843C466.316 38.1598 466.316 38.2476 466.228 38.862C466.141 39.3009 464.385 53.169 464.385 53.169L478.341 55.8022L485.89 54.1345C485.89 54.1345 483.256 36.2288 483.256 36.0533Z" fill="#8DB849"/>
<path d="M482.993 35.8781C482.905 35.8781 481.062 35.7026 481.062 35.7026C481.062 35.7026 479.745 34.386 479.57 34.2982C479.482 34.2104 479.482 34.2104 479.394 34.2104L478.341 55.8025L485.889 54.1349C485.889 54.1349 483.256 36.2292 483.256 36.0537C483.256 35.9659 483.081 35.8781 482.993 35.8781Z" fill="#5A863E"/>
<path d="M475.796 40.0907L474.831 42.8995C474.831 42.8995 474.041 42.4606 472.987 42.4606C471.495 42.4606 471.408 43.3383 471.408 43.6016C471.408 44.8304 474.743 45.3571 474.743 48.3414C474.743 50.7112 473.251 52.2034 471.232 52.2034C468.862 52.2034 467.633 50.7112 467.633 50.7112L468.248 48.6047C468.248 48.6047 469.477 49.6579 470.53 49.6579C471.232 49.6579 471.495 49.1313 471.495 48.6924C471.495 47.0248 468.774 46.937 468.774 44.216C468.774 41.934 470.442 39.7396 473.69 39.7396C475.182 39.6519 475.796 40.0907 475.796 40.0907Z" fill="#FFFFFE"/>
<path d="M507.732 50.3139C506.905 50.3139 506.136 50.1602 505.427 49.8528C504.718 49.5336 504.115 49.1021 503.618 48.5582C503.122 48.0144 502.755 47.3878 502.519 46.6784L504.292 45.9336C504.611 46.7494 505.078 47.376 505.693 47.8134C506.308 48.2508 507.017 48.4696 507.821 48.4696C508.294 48.4696 508.708 48.3986 509.062 48.2567C509.417 48.1031 509.689 47.8902 509.878 47.6183C510.079 47.3464 510.18 47.0331 510.18 46.6784C510.18 46.1937 510.044 45.8095 509.772 45.5257C509.5 45.242 509.098 45.0173 508.566 44.8518L506.083 44.0715C505.09 43.7642 504.333 43.2972 503.813 42.6706C503.293 42.0321 503.033 41.2873 503.033 40.4361C503.033 39.6913 503.216 39.041 503.583 38.4854C503.949 37.9179 504.452 37.4745 505.09 37.1553C505.74 36.8361 506.479 36.6765 507.307 36.6765C508.099 36.6765 508.82 36.8184 509.47 37.1021C510.121 37.374 510.676 37.7524 511.137 38.2371C511.61 38.7218 511.953 39.2834 512.166 39.9218L510.428 40.6844C510.168 39.9868 509.76 39.4489 509.204 39.0706C508.66 38.6922 508.028 38.5031 507.307 38.5031C506.869 38.5031 506.485 38.5799 506.154 38.7336C505.823 38.8755 505.563 39.0883 505.374 39.3721C505.196 39.644 505.108 39.9632 505.108 40.3297C505.108 40.7553 505.244 41.1336 505.516 41.4647C505.788 41.7957 506.201 42.044 506.757 42.2095L509.062 42.9366C510.115 43.2558 510.907 43.7169 511.439 44.3198C511.971 44.9109 512.237 45.6499 512.237 46.5366C512.237 47.2696 512.042 47.9198 511.652 48.4873C511.273 49.0548 510.747 49.504 510.073 49.8351C509.399 50.1543 508.619 50.3139 507.732 50.3139ZM514.391 50.1011V36.6765H516.395V42.3868L516.075 42.1385C516.312 41.5356 516.69 41.0804 517.21 40.773C517.731 40.4538 518.334 40.2942 519.019 40.2942C519.729 40.2942 520.355 40.4479 520.899 40.7553C521.443 41.0627 521.869 41.4883 522.176 42.0321C522.483 42.576 522.637 43.1967 522.637 43.8942V50.1011H520.651V44.444C520.651 43.9592 520.556 43.5513 520.367 43.2203C520.19 42.8775 519.941 42.6174 519.622 42.44C519.303 42.2509 518.937 42.1563 518.523 42.1563C518.121 42.1563 517.754 42.2509 517.423 42.44C517.104 42.6174 516.85 42.8775 516.661 43.2203C516.483 43.5632 516.395 43.971 516.395 44.444V50.1011H514.391ZM529.41 50.3139C528.488 50.3139 527.643 50.0952 526.874 49.6577C526.118 49.2203 525.515 48.6232 525.065 47.8666C524.616 47.11 524.392 46.2528 524.392 45.2952C524.392 44.3257 524.616 43.4686 525.065 42.7238C525.515 41.9671 526.118 41.376 526.874 40.9504C527.631 40.5129 528.476 40.2942 529.41 40.2942C530.356 40.2942 531.201 40.5129 531.946 40.9504C532.703 41.376 533.3 41.9671 533.737 42.7238C534.187 43.4686 534.411 44.3257 534.411 45.2952C534.411 46.2646 534.187 47.1277 533.737 47.8843C533.288 48.641 532.685 49.238 531.928 49.6755C531.172 50.1011 530.332 50.3139 529.41 50.3139ZM529.41 48.4518C529.978 48.4518 530.48 48.3159 530.918 48.0439C531.355 47.772 531.698 47.3996 531.946 46.9267C532.206 46.442 532.336 45.8981 532.336 45.2952C532.336 44.6922 532.206 44.1543 531.946 43.6814C531.698 43.2085 531.355 42.8361 530.918 42.5642C530.48 42.2922 529.978 42.1563 529.41 42.1563C528.855 42.1563 528.352 42.2922 527.903 42.5642C527.465 42.8361 527.117 43.2085 526.857 43.6814C526.608 44.1543 526.484 44.6922 526.484 45.2952C526.484 45.8981 526.608 46.442 526.857 46.9267C527.117 47.3996 527.465 47.772 527.903 48.0439C528.352 48.3159 528.855 48.4518 529.41 48.4518ZM536.368 53.6479V40.507H538.283V42.4932L538.052 42.0321C538.407 41.4883 538.88 41.0627 539.471 40.7553C540.062 40.4479 540.736 40.2942 541.493 40.2942C542.403 40.2942 543.219 40.5129 543.94 40.9504C544.673 41.3878 545.246 41.9848 545.66 42.7415C546.086 43.4981 546.299 44.3494 546.299 45.2952C546.299 46.241 546.086 47.0922 545.66 47.8489C545.246 48.6055 544.679 49.2085 543.958 49.6577C543.237 50.0952 542.415 50.3139 541.493 50.3139C540.748 50.3139 540.068 50.1602 539.453 49.8528C538.85 49.5454 538.383 49.1021 538.052 48.5228L538.372 48.1503V53.6479H536.368ZM541.298 48.4518C541.865 48.4518 542.368 48.3159 542.805 48.0439C543.242 47.772 543.585 47.3996 543.834 46.9267C544.094 46.442 544.224 45.8981 544.224 45.2952C544.224 44.6922 544.094 44.1543 543.834 43.6814C543.585 43.2085 543.242 42.8361 542.805 42.5642C542.368 42.2922 541.865 42.1563 541.298 42.1563C540.742 42.1563 540.24 42.2922 539.79 42.5642C539.353 42.8361 539.004 43.2085 538.744 43.6814C538.496 44.1543 538.372 44.6922 538.372 45.2952C538.372 45.8981 538.496 46.442 538.744 46.9267C539.004 47.3996 539.353 47.772 539.79 48.0439C540.24 48.3159 540.742 48.4518 541.298 48.4518ZM548.248 50.1011V40.507H550.252V50.1011H548.248ZM548.248 39.1947V36.8893H550.252V39.1947H548.248ZM553.677 50.1011V42.3159H551.903V40.507H553.677V40.0105C553.677 39.2893 553.824 38.6863 554.12 38.2016C554.416 37.7051 554.823 37.3267 555.344 37.0666C555.876 36.8065 556.485 36.6765 557.17 36.6765C557.3 36.6765 557.448 36.6883 557.614 36.712C557.779 36.7238 557.915 36.7415 558.021 36.7652V38.5031C557.927 38.4794 557.82 38.4676 557.702 38.4676C557.584 38.4558 557.489 38.4499 557.419 38.4499C556.886 38.4499 556.461 38.574 556.142 38.8223C555.822 39.0588 555.663 39.4548 555.663 40.0105V40.507H557.862V42.3159H555.663V50.1011H553.677ZM560.581 54.0203C560.345 54.0203 560.108 53.9966 559.872 53.9493C559.647 53.9139 559.44 53.8548 559.251 53.772V52.0518C559.393 52.0873 559.564 52.1168 559.765 52.1405C559.966 52.1759 560.162 52.1937 560.351 52.1937C560.906 52.1937 561.314 52.0695 561.574 51.8213C561.846 51.5848 562.089 51.2124 562.301 50.704L562.94 49.2498L562.904 50.9346L558.755 40.507H560.9L563.968 48.505H563.241L566.292 40.507H568.455L564.217 51.1474C563.992 51.7149 563.708 52.2114 563.365 52.637C563.034 53.0745 562.638 53.4114 562.177 53.6479C561.728 53.8961 561.196 54.0203 560.581 54.0203Z" fill="#141414"/>
</g>
<g filter="url(#filter3_d_811_381)">
<rect x="50.3545" y="148" width="222.316" height="48.9114" rx="8.90272" fill="white"/>
<g clip-path="url(#clip1_811_381)">
<rect x="65.3525" y="162.409" width="20.0942" height="20.0942" rx="10.0471" fill="#141414"/>
<path fill-rule="evenodd" clip-rule="evenodd" d="M75.272 183.238C69.1259 183.238 64.1436 178.255 64.1436 172.109C64.1436 165.963 69.1259 160.981 75.272 160.981C81.418 160.981 86.4004 165.963 86.4004 172.109C86.4004 178.255 81.418 183.238 75.272 183.238ZM78.1212 169.055L74.1071 173.434L72.6323 171.959L71.4483 173.143L74.1597 175.855L79.3556 170.186L78.1212 169.055Z" fill="url(#paint4_linear_811_381)"/>
</g>
<path d="M96.1027 177.956V167.048H100.097C100.871 167.048 101.512 167.176 102.02 167.431C102.528 167.683 102.908 168.026 103.16 168.459C103.412 168.889 103.538 169.374 103.538 169.913C103.538 170.368 103.454 170.751 103.287 171.064C103.121 171.373 102.897 171.621 102.616 171.809C102.339 171.994 102.034 172.129 101.7 172.214V172.321C102.062 172.338 102.416 172.456 102.76 172.672C103.108 172.885 103.396 173.189 103.623 173.583C103.85 173.977 103.964 174.456 103.964 175.021C103.964 175.578 103.832 176.079 103.57 176.523C103.311 176.963 102.909 177.313 102.366 177.572C101.823 177.828 101.129 177.956 100.284 177.956H96.1027ZM97.7484 176.544H100.124C100.912 176.544 101.477 176.391 101.817 176.086C102.158 175.781 102.329 175.399 102.329 174.941C102.329 174.597 102.242 174.281 102.068 173.993C101.894 173.705 101.645 173.476 101.322 173.306C101.003 173.136 100.623 173.05 100.182 173.05H97.7484V176.544ZM97.7484 171.767H99.9534C100.323 171.767 100.655 171.696 100.949 171.554C101.248 171.412 101.484 171.213 101.658 170.957C101.835 170.698 101.924 170.393 101.924 170.041C101.924 169.59 101.766 169.212 101.45 168.907C101.134 168.601 100.649 168.449 99.996 168.449H97.7484V171.767ZM105.788 177.956V169.775H107.327V171.074H107.412C107.562 170.634 107.824 170.288 108.201 170.036C108.581 169.78 109.01 169.652 109.49 169.652C109.589 169.652 109.706 169.656 109.841 169.663C109.98 169.67 110.088 169.679 110.166 169.69V171.213C110.102 171.195 109.988 171.176 109.825 171.154C109.662 171.129 109.498 171.117 109.335 171.117C108.959 171.117 108.623 171.197 108.329 171.357C108.037 171.513 107.807 171.731 107.636 172.012C107.466 172.289 107.38 172.605 107.38 172.96V177.956H105.788ZM113.852 178.137C113.333 178.137 112.865 178.041 112.446 177.849C112.027 177.654 111.695 177.371 111.45 177.002C111.208 176.633 111.087 176.18 111.087 175.644C111.087 175.182 111.176 174.803 111.354 174.504C111.531 174.206 111.771 173.97 112.073 173.796C112.375 173.622 112.712 173.491 113.085 173.402C113.457 173.313 113.837 173.246 114.224 173.199C114.714 173.143 115.112 173.096 115.417 173.061C115.723 173.022 115.945 172.96 116.083 172.875C116.222 172.789 116.291 172.651 116.291 172.459V172.422C116.291 171.957 116.16 171.596 115.897 171.341C115.638 171.085 115.251 170.957 114.736 170.957C114.2 170.957 113.777 171.076 113.468 171.314C113.163 171.548 112.952 171.809 112.834 172.097L111.338 171.756C111.515 171.259 111.774 170.858 112.115 170.552C112.46 170.243 112.856 170.02 113.303 169.881C113.75 169.739 114.221 169.668 114.714 169.668C115.041 169.668 115.387 169.707 115.753 169.785C116.122 169.86 116.467 169.998 116.786 170.201C117.109 170.403 117.374 170.693 117.58 171.069C117.786 171.442 117.889 171.927 117.889 172.523V177.956H116.334V176.837H116.27C116.167 177.043 116.012 177.245 115.806 177.444C115.6 177.643 115.336 177.808 115.013 177.94C114.69 178.071 114.303 178.137 113.852 178.137ZM114.198 176.858C114.638 176.858 115.014 176.771 115.327 176.597C115.643 176.423 115.883 176.196 116.046 175.916C116.213 175.632 116.296 175.328 116.296 175.005V173.95C116.239 174.007 116.129 174.06 115.966 174.11C115.806 174.156 115.623 174.197 115.417 174.233C115.212 174.265 115.011 174.295 114.816 174.323C114.62 174.348 114.457 174.369 114.326 174.387C114.017 174.426 113.734 174.492 113.479 174.584C113.227 174.677 113.024 174.81 112.872 174.984C112.722 175.154 112.648 175.381 112.648 175.665C112.648 176.06 112.794 176.358 113.085 176.56C113.376 176.759 113.747 176.858 114.198 176.858ZM120.01 177.956V169.775H121.602V177.956H120.01ZM120.814 168.513C120.537 168.513 120.299 168.42 120.1 168.236C119.905 168.047 119.807 167.824 119.807 167.565C119.807 167.302 119.905 167.078 120.1 166.893C120.299 166.705 120.537 166.611 120.814 166.611C121.091 166.611 121.327 166.705 121.522 166.893C121.721 167.078 121.821 167.302 121.821 167.565C121.821 167.824 121.721 168.047 121.522 168.236C121.327 168.42 121.091 168.513 120.814 168.513ZM125.337 173.098V177.956H123.745V169.775H125.273V171.106H125.374C125.563 170.673 125.857 170.325 126.259 170.062C126.663 169.8 127.173 169.668 127.787 169.668C128.345 169.668 128.833 169.785 129.252 170.02C129.671 170.251 129.996 170.595 130.226 171.053C130.457 171.511 130.573 172.077 130.573 172.752V177.956H128.98V172.944C128.98 172.351 128.826 171.887 128.517 171.554C128.208 171.216 127.784 171.048 127.244 171.048C126.875 171.048 126.546 171.128 126.259 171.287C125.975 171.447 125.749 171.682 125.582 171.99C125.419 172.296 125.337 172.665 125.337 173.098ZM138.839 171.772L137.395 172.028C137.335 171.843 137.239 171.667 137.108 171.5C136.98 171.334 136.806 171.197 136.586 171.09C136.366 170.984 136.09 170.931 135.76 170.931C135.309 170.931 134.933 171.032 134.631 171.234C134.329 171.433 134.178 171.69 134.178 172.006C134.178 172.28 134.28 172.5 134.482 172.667C134.684 172.834 135.011 172.97 135.462 173.077L136.761 173.375C137.514 173.549 138.075 173.817 138.445 174.179C138.814 174.542 138.998 175.012 138.998 175.591C138.998 176.081 138.856 176.518 138.572 176.901C138.292 177.281 137.899 177.579 137.395 177.796C136.895 178.012 136.314 178.121 135.654 178.121C134.738 178.121 133.99 177.925 133.411 177.535C132.833 177.141 132.478 176.581 132.346 175.857L133.885 175.623C133.981 176.024 134.178 176.328 134.477 176.534C134.775 176.736 135.164 176.837 135.643 176.837C136.165 176.837 136.582 176.729 136.895 176.512C137.207 176.292 137.363 176.024 137.363 175.708C137.363 175.452 137.267 175.238 137.076 175.064C136.888 174.89 136.598 174.758 136.208 174.669L134.823 174.366C134.059 174.192 133.495 173.915 133.129 173.535C132.767 173.155 132.586 172.674 132.586 172.092C132.586 171.609 132.721 171.186 132.991 170.824C133.261 170.462 133.633 170.18 134.109 169.977C134.585 169.771 135.13 169.668 135.744 169.668C136.628 169.668 137.324 169.86 137.832 170.243C138.34 170.623 138.675 171.133 138.839 171.772ZM144.568 169.775V171.053H140.1V169.775H144.568ZM141.298 167.815H142.89V175.554C142.89 175.862 142.937 176.095 143.029 176.251C143.121 176.404 143.24 176.509 143.386 176.565C143.535 176.619 143.696 176.645 143.87 176.645C143.998 176.645 144.11 176.636 144.206 176.619C144.302 176.601 144.376 176.587 144.43 176.576L144.717 177.892C144.625 177.927 144.494 177.963 144.323 177.998C144.153 178.037 143.94 178.059 143.684 178.062C143.265 178.069 142.874 177.995 142.512 177.838C142.15 177.682 141.857 177.441 141.633 177.114C141.41 176.787 141.298 176.377 141.298 175.884V167.815ZM149.688 178.121C148.921 178.121 148.251 177.945 147.68 177.593C147.108 177.242 146.664 176.75 146.348 176.118C146.032 175.486 145.874 174.748 145.874 173.902C145.874 173.054 146.032 172.312 146.348 171.676C146.664 171.041 147.108 170.547 147.68 170.196C148.251 169.844 148.921 169.668 149.688 169.668C150.455 169.668 151.124 169.844 151.696 170.196C152.267 170.547 152.711 171.041 153.027 171.676C153.343 172.312 153.501 173.054 153.501 173.902C153.501 174.748 153.343 175.486 153.027 176.118C152.711 176.75 152.267 177.242 151.696 177.593C151.124 177.945 150.455 178.121 149.688 178.121ZM149.693 176.784C150.19 176.784 150.602 176.652 150.929 176.39C151.255 176.127 151.497 175.777 151.653 175.34C151.813 174.904 151.893 174.423 151.893 173.897C151.893 173.375 151.813 172.896 151.653 172.459C151.497 172.019 151.255 171.666 150.929 171.399C150.602 171.133 150.19 171 149.693 171C149.192 171 148.777 171.133 148.447 171.399C148.12 171.666 147.877 172.019 147.717 172.459C147.561 172.896 147.483 173.375 147.483 173.897C147.483 174.423 147.561 174.904 147.717 175.34C147.877 175.777 148.12 176.127 148.447 176.39C148.777 176.652 149.192 176.784 149.693 176.784ZM155.279 177.956V169.775H156.818V171.074H156.903C157.052 170.634 157.315 170.288 157.691 170.036C158.071 169.78 158.501 169.652 158.98 169.652C159.08 169.652 159.197 169.656 159.332 169.663C159.47 169.67 159.579 169.679 159.657 169.69V171.213C159.593 171.195 159.479 171.176 159.316 171.154C159.153 171.129 158.989 171.117 158.826 171.117C158.449 171.117 158.114 171.197 157.819 171.357C157.528 171.513 157.297 171.731 157.127 172.012C156.956 172.289 156.871 172.605 156.871 172.96V177.956H155.279ZM161.035 177.956V169.775H162.563V171.106H162.665C162.835 170.655 163.114 170.304 163.501 170.052C163.888 169.796 164.351 169.668 164.891 169.668C165.438 169.668 165.896 169.796 166.265 170.052C166.638 170.307 166.913 170.659 167.091 171.106H167.176C167.371 170.67 167.682 170.322 168.108 170.062C168.534 169.8 169.042 169.668 169.631 169.668C170.373 169.668 170.978 169.901 171.447 170.366C171.919 170.831 172.156 171.532 172.156 172.47V177.956H170.563V172.619C170.563 172.065 170.412 171.664 170.11 171.415C169.809 171.167 169.448 171.042 169.029 171.042C168.511 171.042 168.108 171.202 167.82 171.522C167.533 171.838 167.389 172.244 167.389 172.741V177.956H165.802V172.518C165.802 172.074 165.663 171.717 165.386 171.447C165.109 171.177 164.749 171.042 164.305 171.042C164.003 171.042 163.724 171.122 163.469 171.282C163.217 171.438 163.013 171.657 162.856 171.937C162.704 172.218 162.627 172.543 162.627 172.912V177.956H161.035ZM174.29 177.956V169.775H175.882V177.956H174.29ZM175.094 168.513C174.817 168.513 174.579 168.42 174.38 168.236C174.185 168.047 174.088 167.824 174.088 167.565C174.088 167.302 174.185 167.078 174.38 166.893C174.579 166.705 174.817 166.611 175.094 166.611C175.371 166.611 175.607 166.705 175.803 166.893C176.001 167.078 176.101 167.302 176.101 167.565C176.101 167.824 176.001 168.047 175.803 168.236C175.607 168.42 175.371 168.513 175.094 168.513ZM179.617 173.098V177.956H178.025V169.775H179.553V171.106H179.655C179.843 170.673 180.137 170.325 180.539 170.062C180.943 169.8 181.453 169.668 182.067 169.668C182.625 169.668 183.113 169.785 183.532 170.02C183.951 170.251 184.276 170.595 184.507 171.053C184.737 171.511 184.853 172.077 184.853 172.752V177.956H183.26V172.944C183.26 172.351 183.106 171.887 182.797 171.554C182.488 171.216 182.064 171.048 181.524 171.048C181.155 171.048 180.826 171.128 180.539 171.287C180.255 171.447 180.029 171.682 179.862 171.99C179.699 172.296 179.617 172.665 179.617 173.098ZM190.418 181.194C189.769 181.194 189.209 181.109 188.741 180.938C188.276 180.768 187.896 180.542 187.601 180.262C187.306 179.981 187.086 179.674 186.941 179.34L188.309 178.776C188.405 178.932 188.533 179.097 188.693 179.271C188.856 179.449 189.076 179.6 189.353 179.724C189.634 179.848 189.994 179.91 190.434 179.91C191.038 179.91 191.537 179.763 191.931 179.468C192.325 179.177 192.522 178.712 192.522 178.073V176.464H192.421C192.325 176.638 192.187 176.832 192.006 177.045C191.828 177.258 191.583 177.442 191.271 177.599C190.958 177.755 190.552 177.833 190.051 177.833C189.405 177.833 188.822 177.682 188.304 177.38C187.789 177.075 187.381 176.626 187.079 176.033C186.781 175.436 186.632 174.703 186.632 173.833C186.632 172.963 186.779 172.218 187.074 171.596C187.372 170.975 187.78 170.499 188.299 170.169C188.817 169.835 189.405 169.668 190.062 169.668C190.569 169.668 190.979 169.753 191.292 169.924C191.604 170.091 191.848 170.286 192.022 170.51C192.199 170.733 192.336 170.931 192.432 171.101H192.549V169.775H194.109V178.137C194.109 178.84 193.946 179.417 193.619 179.868C193.293 180.319 192.851 180.652 192.293 180.869C191.739 181.085 191.114 181.194 190.418 181.194ZM190.402 176.512C190.861 176.512 191.248 176.406 191.564 176.193C191.883 175.976 192.125 175.667 192.288 175.266C192.455 174.861 192.538 174.376 192.538 173.812C192.538 173.262 192.457 172.777 192.293 172.358C192.13 171.939 191.89 171.612 191.574 171.378C191.258 171.14 190.868 171.021 190.402 171.021C189.923 171.021 189.524 171.145 189.204 171.394C188.885 171.639 188.643 171.973 188.48 172.395C188.32 172.818 188.24 173.29 188.24 173.812C188.24 174.348 188.322 174.819 188.485 175.223C188.648 175.628 188.89 175.944 189.209 176.171C189.533 176.399 189.93 176.512 190.402 176.512Z" fill="#141414"/>
</g>
<g filter="url(#filter4_d_811_381)">
<rect x="281.573" y="148" width="222.316" height="48.9114" rx="8.90272" fill="white"/>
<g clip-path="url(#clip2_811_381)">
<rect x="296.571" y="162.409" width="20.0942" height="20.0942" rx="10.0471" fill="#141414"/>
<path fill-rule="evenodd" clip-rule="evenodd" d="M306.491 183.238C300.345 183.238 295.362 178.255 295.362 172.109C295.362 165.963 300.345 160.981 306.491 160.981C312.637 160.981 317.619 165.963 317.619 172.109C317.619 178.255 312.637 183.238 306.491 183.238ZM309.34 169.055L305.326 173.434L303.851 171.959L302.667 173.143L305.378 175.855L310.574 170.186L309.34 169.055Z" fill="url(#paint5_linear_811_381)"/>
</g>
<path d="M331.332 174.419H332.951L334.091 175.905L334.629 176.565L336.445 178.936H334.762L333.548 177.354L333.132 176.779L331.332 174.419ZM336.796 172.502C336.796 173.666 336.583 174.668 336.157 175.506C335.731 176.34 335.147 176.983 334.405 177.434C333.666 177.881 332.827 178.105 331.886 178.105C330.941 178.105 330.098 177.881 329.356 177.434C328.617 176.983 328.035 176.338 327.609 175.5C327.183 174.662 326.97 173.663 326.97 172.502C326.97 171.337 327.183 170.338 327.609 169.503C328.035 168.665 328.617 168.023 329.356 167.575C330.098 167.124 330.941 166.899 331.886 166.899C332.827 166.899 333.666 167.124 334.405 167.575C335.147 168.023 335.731 168.665 336.157 169.503C336.583 170.338 336.796 171.337 336.796 172.502ZM335.167 172.502C335.167 171.614 335.023 170.867 334.735 170.259C334.451 169.649 334.061 169.187 333.563 168.875C333.07 168.559 332.511 168.401 331.886 168.401C331.257 168.401 330.696 168.559 330.203 168.875C329.709 169.187 329.319 169.649 329.031 170.259C328.747 170.867 328.605 171.614 328.605 172.502C328.605 173.389 328.747 174.139 329.031 174.749C329.319 175.356 329.709 175.818 330.203 176.134C330.696 176.447 331.257 176.603 331.886 176.603C332.511 176.603 333.07 176.447 333.563 176.134C334.061 175.818 334.451 175.356 334.735 174.749C335.023 174.139 335.167 173.389 335.167 172.502ZM343.903 174.563V169.775H345.5V177.956H343.935V176.539H343.849C343.661 176.976 343.359 177.34 342.944 177.631C342.532 177.918 342.019 178.062 341.405 178.062C340.879 178.062 340.414 177.947 340.009 177.716C339.608 177.482 339.292 177.135 339.061 176.677C338.834 176.219 338.72 175.653 338.72 174.978V169.775H340.313V174.787C340.313 175.344 340.467 175.788 340.776 176.118C341.085 176.448 341.486 176.613 341.98 176.613C342.278 176.613 342.575 176.539 342.869 176.39C343.168 176.241 343.414 176.015 343.61 175.713C343.809 175.412 343.906 175.028 343.903 174.563ZM351.086 178.121C350.319 178.121 349.65 177.945 349.078 177.593C348.507 177.242 348.063 176.75 347.747 176.118C347.431 175.486 347.273 174.748 347.273 173.902C347.273 173.054 347.431 172.312 347.747 171.676C348.063 171.041 348.507 170.547 349.078 170.196C349.65 169.844 350.319 169.668 351.086 169.668C351.853 169.668 352.522 169.844 353.094 170.196C353.666 170.547 354.11 171.041 354.426 171.676C354.742 172.312 354.9 173.054 354.9 173.902C354.9 174.748 354.742 175.486 354.426 176.118C354.11 176.75 353.666 177.242 353.094 177.593C352.522 177.945 351.853 178.121 351.086 178.121ZM351.091 176.784C351.589 176.784 352 176.652 352.327 176.39C352.654 176.127 352.895 175.777 353.051 175.34C353.211 174.904 353.291 174.423 353.291 173.897C353.291 173.375 353.211 172.896 353.051 172.459C352.895 172.019 352.654 171.666 352.327 171.399C352 171.133 351.589 171 351.091 171C350.591 171 350.175 171.133 349.845 171.399C349.518 171.666 349.275 172.019 349.115 172.459C348.959 172.896 348.881 173.375 348.881 173.897C348.881 174.423 348.959 174.904 349.115 175.34C349.275 175.777 349.518 176.127 349.845 176.39C350.175 176.652 350.591 176.784 351.091 176.784ZM360.496 169.775V171.053H356.027V169.775H360.496ZM357.226 167.815H358.818V175.554C358.818 175.862 358.864 176.095 358.957 176.251C359.049 176.404 359.168 176.509 359.313 176.565C359.463 176.619 359.624 176.645 359.798 176.645C359.926 176.645 360.038 176.636 360.134 176.619C360.23 176.601 360.304 176.587 360.357 176.576L360.645 177.892C360.553 177.927 360.421 177.963 360.251 177.998C360.08 178.037 359.867 178.059 359.612 178.062C359.193 178.069 358.802 177.995 358.44 177.838C358.078 177.682 357.785 177.441 357.561 177.114C357.338 176.787 357.226 176.377 357.226 175.884V167.815ZM364.638 178.137C364.12 178.137 363.651 178.041 363.232 177.849C362.813 177.654 362.481 177.371 362.236 177.002C361.995 176.633 361.874 176.18 361.874 175.644C361.874 175.182 361.963 174.803 362.14 174.504C362.318 174.206 362.557 173.97 362.859 173.796C363.161 173.622 363.498 173.491 363.871 173.402C364.244 173.313 364.624 173.246 365.011 173.199C365.501 173.143 365.899 173.096 366.204 173.061C366.509 173.022 366.731 172.96 366.87 172.875C367.008 172.789 367.077 172.651 367.077 172.459V172.422C367.077 171.957 366.946 171.596 366.683 171.341C366.424 171.085 366.037 170.957 365.522 170.957C364.986 170.957 364.564 171.076 364.255 171.314C363.949 171.548 363.738 171.809 363.621 172.097L362.124 171.756C362.302 171.259 362.561 170.858 362.902 170.552C363.246 170.243 363.642 170.02 364.09 169.881C364.537 169.739 365.007 169.668 365.501 169.668C365.828 169.668 366.174 169.707 366.54 169.785C366.909 169.86 367.253 169.998 367.573 170.201C367.896 170.403 368.16 170.693 368.366 171.069C368.572 171.442 368.675 171.927 368.675 172.523V177.956H367.12V176.837H367.056C366.953 177.043 366.799 177.245 366.593 177.444C366.387 177.643 366.122 177.808 365.799 177.94C365.476 178.071 365.089 178.137 364.638 178.137ZM364.984 176.858C365.425 176.858 365.801 176.771 366.113 176.597C366.429 176.423 366.669 176.196 366.832 175.916C366.999 175.632 367.083 175.328 367.083 175.005V173.95C367.026 174.007 366.916 174.06 366.753 174.11C366.593 174.156 366.41 174.197 366.204 174.233C365.998 174.265 365.797 174.295 365.602 174.323C365.407 174.348 365.244 174.369 365.112 174.387C364.803 174.426 364.521 174.492 364.265 174.584C364.013 174.677 363.811 174.81 363.658 174.984C363.509 175.154 363.434 175.381 363.434 175.665C363.434 176.06 363.58 176.358 363.871 176.56C364.162 176.759 364.533 176.858 364.984 176.858ZM374.615 169.775V171.053H370.147V169.775H374.615ZM371.345 167.815H372.937V175.554C372.937 175.862 372.984 176.095 373.076 176.251C373.168 176.404 373.287 176.509 373.433 176.565C373.582 176.619 373.743 176.645 373.917 176.645C374.045 176.645 374.157 176.636 374.253 176.619C374.349 176.601 374.423 176.587 374.477 176.576L374.764 177.892C374.672 177.927 374.541 177.963 374.37 177.998C374.2 178.037 373.987 178.059 373.731 178.062C373.312 178.069 372.921 177.995 372.559 177.838C372.197 177.682 371.904 177.441 371.68 177.114C371.457 176.787 371.345 176.377 371.345 175.884V167.815ZM376.377 177.956V169.775H377.969V177.956H376.377ZM377.181 168.513C376.904 168.513 376.666 168.42 376.467 168.236C376.272 168.047 376.174 167.824 376.174 167.565C376.174 167.302 376.272 167.078 376.467 166.893C376.666 166.705 376.904 166.611 377.181 166.611C377.458 166.611 377.694 166.705 377.889 166.893C378.088 167.078 378.188 167.302 378.188 167.565C378.188 167.824 378.088 168.047 377.889 168.236C377.694 168.42 377.458 168.513 377.181 168.513ZM383.558 178.121C382.791 178.121 382.121 177.945 381.55 177.593C380.978 177.242 380.534 176.75 380.218 176.118C379.902 175.486 379.744 174.748 379.744 173.902C379.744 173.054 379.902 172.312 380.218 171.676C380.534 171.041 380.978 170.547 381.55 170.196C382.121 169.844 382.791 169.668 383.558 169.668C384.324 169.668 384.994 169.844 385.565 170.196C386.137 170.547 386.581 171.041 386.897 171.676C387.213 172.312 387.371 173.054 387.371 173.902C387.371 174.748 387.213 175.486 386.897 176.118C386.581 176.75 386.137 177.242 385.565 177.593C384.994 177.945 384.324 178.121 383.558 178.121ZM383.563 176.784C384.06 176.784 384.472 176.652 384.798 176.39C385.125 176.127 385.367 175.777 385.523 175.34C385.683 174.904 385.762 174.423 385.762 173.897C385.762 173.375 385.683 172.896 385.523 172.459C385.367 172.019 385.125 171.666 384.798 171.399C384.472 171.133 384.06 171 383.563 171C383.062 171 382.647 171.133 382.317 171.399C381.99 171.666 381.747 172.019 381.587 172.459C381.431 172.896 381.353 173.375 381.353 173.897C381.353 174.423 381.431 174.904 381.587 175.34C381.747 175.777 381.99 176.127 382.317 176.39C382.647 176.652 383.062 176.784 383.563 176.784ZM390.741 173.098V177.956H389.148V169.775H390.677V171.106H390.778C390.966 170.673 391.261 170.325 391.662 170.062C392.067 169.8 392.577 169.668 393.191 169.668C393.748 169.668 394.237 169.785 394.656 170.02C395.075 170.251 395.399 170.595 395.63 171.053C395.861 171.511 395.976 172.077 395.976 172.752V177.956H394.384V172.944C394.384 172.351 394.23 171.887 393.921 171.554C393.612 171.216 393.187 171.048 392.648 171.048C392.278 171.048 391.95 171.128 391.662 171.287C391.378 171.447 391.153 171.682 390.986 171.99C390.823 172.296 390.741 172.665 390.741 173.098Z" fill="#141414"/>
</g>
<g filter="url(#filter5_d_811_381)">
<rect x="107.11" y="205.868" width="222.316" height="48.9114" rx="8.90272" fill="white"/>
<g clip-path="url(#clip3_811_381)">
<rect x="122.108" y="220.276" width="20.0942" height="20.0942" rx="10.0471" fill="#141414"/>
<path fill-rule="evenodd" clip-rule="evenodd" d="M132.02 241.107C125.874 241.107 120.892 236.125 120.892 229.979C120.892 223.833 125.874 218.851 132.02 218.851C138.166 218.851 143.148 223.833 143.148 229.979C143.148 236.125 138.166 241.107 132.02 241.107ZM134.869 226.925L130.855 231.304L129.38 229.829L128.196 231.013L130.908 233.724L136.104 228.056L134.869 226.925Z" fill="url(#paint6_linear_811_381)"/>
</g>
<path d="M152.321 226.332V224.916H160.762V226.332H157.359V235.823H155.719V226.332H152.321ZM162.5 235.823V227.642H164.092V235.823H162.5ZM163.304 226.38C163.027 226.38 162.789 226.288 162.59 226.103C162.395 225.915 162.298 225.691 162.298 225.432C162.298 225.169 162.395 224.946 162.59 224.761C162.789 224.573 163.027 224.479 163.304 224.479C163.581 224.479 163.817 224.573 164.013 224.761C164.211 224.946 164.311 225.169 164.311 225.432C164.311 225.691 164.211 225.915 164.013 226.103C163.817 226.288 163.581 226.38 163.304 226.38ZM166.235 235.823V227.642H167.763V228.974H167.865C168.035 228.523 168.314 228.172 168.701 227.919C169.088 227.664 169.551 227.536 170.091 227.536C170.638 227.536 171.096 227.664 171.465 227.919C171.838 228.175 172.113 228.527 172.29 228.974H172.376C172.571 228.537 172.882 228.189 173.308 227.93C173.734 227.667 174.242 227.536 174.831 227.536C175.573 227.536 176.178 227.769 176.647 228.234C177.119 228.699 177.356 229.4 177.356 230.337V235.823H175.763V230.487C175.763 229.933 175.612 229.531 175.31 229.283C175.009 229.034 174.648 228.91 174.229 228.91C173.711 228.91 173.308 229.07 173.02 229.389C172.733 229.705 172.589 230.112 172.589 230.609V235.823H171.002V230.385C171.002 229.942 170.863 229.585 170.586 229.315C170.309 229.045 169.949 228.91 169.505 228.91C169.203 228.91 168.924 228.99 168.669 229.15C168.417 229.306 168.213 229.524 168.056 229.805C167.904 230.085 167.827 230.41 167.827 230.78V235.823H166.235ZM183.016 235.988C182.21 235.988 181.516 235.816 180.933 235.472C180.355 235.124 179.907 234.636 179.591 234.007C179.279 233.375 179.122 232.635 179.122 231.786C179.122 230.948 179.279 230.21 179.591 229.57C179.907 228.931 180.347 228.433 180.912 228.074C181.48 227.715 182.144 227.536 182.904 227.536C183.366 227.536 183.813 227.612 184.246 227.765C184.679 227.918 185.068 228.157 185.412 228.484C185.757 228.811 186.029 229.235 186.227 229.757C186.426 230.275 186.526 230.906 186.526 231.648V232.212L180.023 232.212V231.019H184.965C184.965 230.6 184.88 230.229 184.709 229.906C184.539 229.579 184.299 229.322 183.99 229.134C183.685 228.946 183.326 228.851 182.915 228.851C182.467 228.851 182.077 228.962 181.743 229.182C181.413 229.398 181.157 229.682 180.976 230.034C180.798 230.382 180.71 230.76 180.71 231.168V232.1C180.71 232.647 180.805 233.112 180.997 233.496C181.192 233.879 181.464 234.172 181.812 234.375C182.16 234.573 182.567 234.673 183.032 234.673C183.334 234.673 183.609 234.63 183.857 234.545C184.106 234.456 184.321 234.325 184.502 234.151C184.683 233.977 184.821 233.762 184.917 233.506L186.424 233.778C186.304 234.222 186.087 234.611 185.775 234.944C185.466 235.275 185.077 235.532 184.608 235.717C184.143 235.898 183.612 235.988 183.016 235.988ZM189.885 224.916V235.823H188.293V224.916H189.885ZM192.027 235.823V227.642H193.62V235.823H192.027ZM192.832 226.38C192.555 226.38 192.317 226.288 192.118 226.103C191.923 225.915 191.825 225.691 191.825 225.432C191.825 225.169 191.923 224.946 192.118 224.761C192.317 224.573 192.555 224.479 192.832 224.479C193.109 224.479 193.345 224.573 193.54 224.761C193.739 224.946 193.838 225.169 193.838 225.432C193.838 225.691 193.739 225.915 193.54 226.103C193.345 226.288 193.109 226.38 192.832 226.38ZM197.355 230.966V235.823H195.762V227.642H197.291V228.974H197.392C197.58 228.541 197.875 228.193 198.276 227.93C198.681 227.667 199.19 227.536 199.805 227.536C200.362 227.536 200.85 227.653 201.269 227.887C201.688 228.118 202.013 228.463 202.244 228.921C202.475 229.379 202.59 229.945 202.59 230.62V235.823H200.998V230.811C200.998 230.218 200.843 229.755 200.534 229.421C200.225 229.084 199.801 228.915 199.261 228.915C198.892 228.915 198.564 228.995 198.276 229.155C197.992 229.315 197.767 229.549 197.6 229.858C197.436 230.163 197.355 230.533 197.355 230.966ZM208.252 235.988C207.446 235.988 206.752 235.816 206.169 235.472C205.591 235.124 205.143 234.636 204.827 234.007C204.515 233.375 204.358 232.635 204.358 231.786C204.358 230.948 204.515 230.21 204.827 229.57C205.143 228.931 205.583 228.433 206.148 228.074C206.716 227.715 207.38 227.536 208.14 227.536C208.602 227.536 209.049 227.612 209.482 227.765C209.915 227.918 210.304 228.157 210.648 228.484C210.993 228.811 211.265 229.235 211.463 229.757C211.662 230.275 211.762 230.906 211.762 231.648V232.212H205.259V231.019H210.201C210.201 230.6 210.116 230.229 209.945 229.906C209.775 229.579 209.535 229.322 209.226 229.134C208.921 228.946 208.562 228.851 208.151 228.851C207.703 228.851 207.313 228.962 206.979 229.182C206.649 229.398 206.393 229.682 206.212 230.034C206.034 230.382 205.946 230.76 205.946 231.168V232.1C205.946 232.647 206.041 233.112 206.233 233.496C206.429 233.879 206.7 234.172 207.048 234.375C207.396 234.573 207.803 234.673 208.268 234.673C208.57 234.673 208.845 234.63 209.093 234.545C209.342 234.456 209.557 234.325 209.738 234.151C209.919 233.977 210.057 233.762 210.153 233.506L211.66 233.778C211.54 234.222 211.323 234.611 211.011 234.944C210.702 235.275 210.313 235.532 209.844 235.717C209.379 235.898 208.848 235.988 208.252 235.988ZM221.157 235.823H217.626V224.916H221.269C222.337 224.916 223.255 225.134 224.022 225.571C224.789 226.004 225.377 226.627 225.785 227.44C226.197 228.25 226.403 229.221 226.403 230.353C226.403 231.49 226.195 232.466 225.78 233.283C225.368 234.099 224.771 234.728 223.99 235.168C223.209 235.605 222.265 235.823 221.157 235.823ZM219.271 234.385H221.066C221.897 234.385 222.588 234.229 223.138 233.917C223.688 233.601 224.1 233.144 224.374 232.548C224.647 231.948 224.784 231.216 224.784 230.353C224.784 229.498 224.647 228.772 224.374 228.175C224.104 227.579 223.701 227.126 223.165 226.817C222.628 226.508 221.963 226.354 221.167 226.354H219.271V234.385ZM228.322 235.823V227.642H229.914V235.823H228.322ZM229.126 226.38C228.849 226.38 228.611 226.288 228.412 226.103C228.217 225.915 228.119 225.691 228.119 225.432C228.119 225.169 228.217 224.946 228.412 224.761C228.611 224.573 228.849 224.479 229.126 224.479C229.403 224.479 229.639 224.573 229.834 224.761C230.033 224.946 230.132 225.169 230.132 225.432C230.132 225.691 230.033 225.915 229.834 226.103C229.639 226.288 229.403 226.38 229.126 226.38ZM238.187 229.64L236.743 229.895C236.683 229.711 236.587 229.535 236.456 229.368C236.328 229.201 236.154 229.065 235.934 228.958C235.714 228.851 235.438 228.798 235.108 228.798C234.657 228.798 234.281 228.899 233.979 229.102C233.677 229.301 233.526 229.558 233.526 229.874C233.526 230.147 233.628 230.368 233.83 230.535C234.032 230.701 234.359 230.838 234.81 230.945L236.11 231.243C236.862 231.417 237.423 231.685 237.793 232.047C238.162 232.409 238.346 232.88 238.346 233.458C238.346 233.948 238.204 234.385 237.92 234.769C237.64 235.149 237.248 235.447 236.743 235.663C236.243 235.88 235.662 235.988 235.002 235.988C234.086 235.988 233.338 235.793 232.759 235.402C232.181 235.008 231.826 234.449 231.694 233.725L233.233 233.49C233.329 233.892 233.526 234.195 233.825 234.401C234.123 234.604 234.512 234.705 234.991 234.705C235.513 234.705 235.93 234.596 236.243 234.38C236.555 234.16 236.711 233.892 236.711 233.576C236.711 233.32 236.615 233.105 236.424 232.931C236.236 232.757 235.946 232.626 235.556 232.537L234.171 232.234C233.407 232.06 232.843 231.783 232.477 231.403C232.115 231.023 231.934 230.542 231.934 229.959C231.934 229.476 232.069 229.054 232.339 228.692C232.609 228.33 232.981 228.047 233.457 227.845C233.933 227.639 234.478 227.536 235.092 227.536C235.976 227.536 236.672 227.728 237.18 228.111C237.688 228.491 238.023 229.001 238.187 229.64ZM243.543 235.988C242.752 235.988 242.07 235.809 241.498 235.45C240.93 235.088 240.493 234.589 240.188 233.954C239.883 233.318 239.73 232.59 239.73 231.77C239.73 230.939 239.886 230.206 240.199 229.57C240.511 228.931 240.951 228.433 241.519 228.074C242.088 227.715 242.757 227.536 243.527 227.536C244.149 227.536 244.703 227.651 245.189 227.882C245.675 228.109 246.068 228.429 246.366 228.841C246.668 229.253 246.847 229.734 246.904 230.284H245.354C245.269 229.901 245.074 229.57 244.768 229.294C244.466 229.017 244.062 228.878 243.554 228.878C243.11 228.878 242.721 228.995 242.388 229.23C242.057 229.46 241.8 229.791 241.615 230.22C241.431 230.646 241.338 231.151 241.338 231.733C241.338 232.329 241.429 232.844 241.61 233.277C241.791 233.711 242.047 234.046 242.377 234.284C242.711 234.522 243.103 234.641 243.554 234.641C243.856 234.641 244.129 234.586 244.374 234.476C244.623 234.362 244.83 234.201 244.997 233.991C245.168 233.782 245.287 233.53 245.354 233.235H246.904C246.847 233.764 246.675 234.236 246.387 234.652C246.1 235.067 245.715 235.394 245.232 235.632C244.752 235.869 244.19 235.988 243.543 235.988ZM253.789 232.431V227.642H255.387V235.823H253.821V234.407H253.736C253.548 234.843 253.246 235.207 252.831 235.498C252.419 235.786 251.906 235.93 251.291 235.93C250.766 235.93 250.301 235.814 249.896 235.584C249.495 235.349 249.179 235.003 248.948 234.545C248.721 234.087 248.607 233.521 248.607 232.846V227.642H250.2V232.654C250.2 233.212 250.354 233.656 250.663 233.986C250.972 234.316 251.373 234.481 251.867 234.481C252.165 234.481 252.461 234.407 252.756 234.257C253.054 234.108 253.301 233.883 253.496 233.581C253.695 233.279 253.793 232.896 253.789 232.431ZM263.657 229.64L262.214 229.895C262.153 229.711 262.057 229.535 261.926 229.368C261.798 229.201 261.624 229.065 261.404 228.958C261.184 228.851 260.909 228.798 260.579 228.798C260.128 228.798 259.751 228.899 259.449 229.102C259.148 229.301 258.997 229.558 258.997 229.874C258.997 230.147 259.098 230.368 259.3 230.535C259.503 230.701 259.829 230.838 260.28 230.945L261.58 231.243C262.333 231.417 262.894 231.685 263.263 232.047C263.632 232.409 263.817 232.88 263.817 233.458C263.817 233.948 263.675 234.385 263.391 234.769C263.11 235.149 262.718 235.447 262.214 235.663C261.713 235.88 261.132 235.988 260.472 235.988C259.556 235.988 258.809 235.793 258.23 235.402C257.651 235.008 257.296 234.449 257.165 233.725L258.704 233.49C258.8 233.892 258.997 234.195 259.295 234.401C259.593 234.604 259.982 234.705 260.461 234.705C260.983 234.705 261.401 234.596 261.713 234.38C262.025 234.16 262.182 233.892 262.182 233.576C262.182 233.32 262.086 233.105 261.894 232.931C261.706 232.757 261.417 232.626 261.026 232.537L259.641 232.234C258.878 232.06 258.313 231.783 257.948 231.403C257.585 231.023 257.404 230.542 257.404 229.959C257.404 229.476 257.539 229.054 257.809 228.692C258.079 228.33 258.452 228.047 258.928 227.845C259.403 227.639 259.948 227.536 260.563 227.536C261.447 227.536 262.143 227.728 262.65 228.111C263.158 228.491 263.494 229.001 263.657 229.64ZM271.698 229.64L270.255 229.895C270.194 229.711 270.098 229.535 269.967 229.368C269.839 229.201 269.665 229.065 269.445 228.958C269.225 228.851 268.95 228.798 268.62 228.798C268.169 228.798 267.792 228.899 267.49 229.102C267.189 229.301 267.038 229.558 267.038 229.874C267.038 230.147 267.139 230.368 267.341 230.535C267.544 230.701 267.87 230.838 268.321 230.945L269.621 231.243C270.374 231.417 270.935 231.685 271.304 232.047C271.673 232.409 271.858 232.88 271.858 233.458C271.858 233.948 271.716 234.385 271.432 234.769C271.151 235.149 270.759 235.447 270.255 235.663C269.754 235.88 269.173 235.988 268.513 235.988C267.597 235.988 266.85 235.793 266.271 235.402C265.692 235.008 265.337 234.449 265.206 233.725L266.745 233.49C266.841 233.892 267.038 234.195 267.336 234.401C267.634 234.604 268.023 234.705 268.502 234.705C269.024 234.705 269.442 234.596 269.754 234.38C270.066 234.16 270.223 233.892 270.223 233.576C270.223 233.32 270.127 233.105 269.935 232.931C269.747 232.757 269.457 232.626 269.067 232.537L267.682 232.234C266.919 232.06 266.354 231.783 265.988 231.403C265.626 231.023 265.445 230.542 265.445 229.959C265.445 229.476 265.58 229.054 265.85 228.692C266.12 228.33 266.493 228.047 266.968 227.845C267.444 227.639 267.989 227.536 268.604 227.536C269.488 227.536 270.184 227.728 270.691 228.111C271.199 228.491 271.535 229.001 271.698 229.64ZM273.609 235.823V227.642H275.201V235.823H273.609ZM274.413 226.38C274.136 226.38 273.898 226.288 273.699 226.103C273.504 225.915 273.406 225.691 273.406 225.432C273.406 225.169 273.504 224.946 273.699 224.761C273.898 224.573 274.136 224.479 274.413 224.479C274.69 224.479 274.926 224.573 275.121 224.761C275.32 224.946 275.42 225.169 275.42 225.432C275.42 225.691 275.32 225.915 275.121 226.103C274.926 226.288 274.69 226.38 274.413 226.38ZM280.789 235.988C280.023 235.988 279.353 235.813 278.782 235.461C278.21 235.11 277.766 234.618 277.45 233.986C277.134 233.354 276.976 232.615 276.976 231.77C276.976 230.922 277.134 230.179 277.45 229.544C277.766 228.908 278.21 228.415 278.782 228.063C279.353 227.712 280.023 227.536 280.789 227.536C281.556 227.536 282.226 227.712 282.797 228.063C283.369 228.415 283.813 228.908 284.129 229.544C284.445 230.179 284.603 230.922 284.603 231.77C284.603 232.615 284.445 233.354 284.129 233.986C283.813 234.618 283.369 235.11 282.797 235.461C282.226 235.813 281.556 235.988 280.789 235.988ZM280.795 234.652C281.292 234.652 281.704 234.52 282.03 234.257C282.357 233.995 282.599 233.645 282.755 233.208C282.915 232.771 282.994 232.29 282.994 231.765C282.994 231.243 282.915 230.764 282.755 230.327C282.599 229.887 282.357 229.533 282.03 229.267C281.704 229.001 281.292 228.867 280.795 228.867C280.294 228.867 279.879 229.001 279.549 229.267C279.222 229.533 278.979 229.887 278.819 230.327C278.663 230.764 278.585 231.243 278.585 231.765C278.585 232.29 278.663 232.771 278.819 233.208C278.979 233.645 279.222 233.995 279.549 234.257C279.879 234.52 280.294 234.652 280.795 234.652ZM287.973 230.966V235.823H286.38V227.642H287.909V228.974H288.01C288.198 228.541 288.493 228.193 288.894 227.93C289.299 227.667 289.809 227.536 290.423 227.536C290.98 227.536 291.469 227.653 291.888 227.887C292.307 228.118 292.631 228.463 292.862 228.921C293.093 229.379 293.208 229.945 293.208 230.62V235.823H291.616V230.811C291.616 230.218 291.462 229.755 291.153 229.421C290.844 229.084 290.419 228.915 289.88 228.915C289.51 228.915 289.182 228.995 288.894 229.155C288.61 229.315 288.385 229.549 288.218 229.858C288.055 230.163 287.973 230.533 287.973 230.966Z" fill="#141414"/>
</g>
<g filter="url(#filter6_d_811_381)">
<rect x="338.329" y="205.868" width="222.316" height="48.9114" rx="8.90272" fill="white"/>
<g clip-path="url(#clip4_811_381)">
<rect x="353.327" y="220.276" width="20.0942" height="20.0942" rx="10.0471" fill="#141414"/>
<path fill-rule="evenodd" clip-rule="evenodd" d="M363.245 241.108C357.099 241.108 352.116 236.126 352.116 229.98C352.116 223.834 357.099 218.852 363.245 218.852C369.391 218.852 374.373 223.834 374.373 229.98C374.373 236.126 369.391 241.108 363.245 241.108ZM366.094 226.926L362.08 231.305L360.605 229.83L359.421 231.014L362.132 233.725L367.328 228.057L366.094 226.926Z" fill="url(#paint7_linear_811_381)"/>
</g>
<path d="M383.539 226.332V224.916H391.981V226.332H388.578V235.823H386.937V226.332H383.539ZM393.719 235.823V227.642H395.311V235.823H393.719ZM394.523 226.38C394.246 226.38 394.008 226.288 393.809 226.103C393.614 225.915 393.516 225.691 393.516 225.432C393.516 225.169 393.614 224.946 393.809 224.761C394.008 224.573 394.246 224.479 394.523 224.479C394.8 224.479 395.036 224.573 395.231 224.761C395.43 224.946 395.53 225.169 395.53 225.432C395.53 225.691 395.43 225.915 395.231 226.103C395.036 226.288 394.8 226.38 394.523 226.38ZM397.454 235.823V227.642H398.982V228.974H399.083C399.254 228.523 399.532 228.172 399.92 227.919C400.307 227.664 400.77 227.536 401.31 227.536C401.856 227.536 402.314 227.664 402.684 227.919C403.057 228.175 403.332 228.527 403.509 228.974H403.594C403.79 228.537 404.1 228.189 404.527 227.93C404.953 227.667 405.46 227.536 406.05 227.536C406.792 227.536 407.397 227.769 407.866 228.234C408.338 228.699 408.574 229.4 408.574 230.337V235.823H406.982V230.487C406.982 229.933 406.831 229.531 406.529 229.283C406.227 229.034 405.867 228.91 405.448 228.91C404.93 228.91 404.527 229.07 404.239 229.389C403.951 229.705 403.807 230.112 403.807 230.609V235.823H402.22V230.385C402.22 229.942 402.082 229.585 401.805 229.315C401.528 229.045 401.168 228.91 400.724 228.91C400.422 228.91 400.143 228.99 399.888 229.15C399.635 229.306 399.431 229.524 399.275 229.805C399.122 230.085 399.046 230.41 399.046 230.78V235.823H397.454ZM414.235 235.988C413.429 235.988 412.734 235.816 412.152 235.472C411.573 235.124 411.126 234.636 410.81 234.007C410.497 233.375 410.341 232.635 410.341 231.786C410.341 230.948 410.497 230.21 410.81 229.57C411.126 228.931 411.566 228.433 412.131 228.074C412.699 227.715 413.363 227.536 414.123 227.536C414.584 227.536 415.032 227.612 415.465 227.765C415.898 227.918 416.287 228.157 416.631 228.484C416.976 228.811 417.247 229.235 417.446 229.757C417.645 230.275 417.744 230.906 417.744 231.648V232.212L411.241 232.212V231.019H416.184C416.184 230.6 416.099 230.229 415.928 229.906C415.758 229.579 415.518 229.322 415.209 229.134C414.904 228.946 414.545 228.851 414.133 228.851C413.686 228.851 413.295 228.962 412.962 229.182C412.631 229.398 412.376 229.682 412.195 230.034C412.017 230.382 411.928 230.76 411.928 231.168V232.1C411.928 232.647 412.024 233.112 412.216 233.496C412.411 233.879 412.683 234.172 413.031 234.375C413.379 234.573 413.785 234.673 414.25 234.673C414.552 234.673 414.827 234.63 415.076 234.545C415.325 234.456 415.539 234.325 415.72 234.151C415.902 233.977 416.04 233.762 416.136 233.506L417.643 233.778C417.522 234.222 417.306 234.611 416.993 234.944C416.684 235.275 416.296 235.532 415.827 235.717C415.362 235.898 414.831 235.988 414.235 235.988ZM421.104 224.916V235.823H419.511V224.916H421.104ZM423.246 235.823V227.642H424.839V235.823H423.246ZM424.05 226.38C423.773 226.38 423.536 226.288 423.337 226.103C423.141 225.915 423.044 225.691 423.044 225.432C423.044 225.169 423.141 224.946 423.337 224.761C423.536 224.573 423.773 224.479 424.05 224.479C424.327 224.479 424.563 224.573 424.759 224.761C424.958 224.946 425.057 225.169 425.057 225.432C425.057 225.691 424.958 225.915 424.759 226.103C424.563 226.288 424.327 226.38 424.05 226.38ZM428.573 230.966V235.823H426.981V227.642H428.51V228.974H428.611C428.799 228.541 429.094 228.193 429.495 227.93C429.9 227.667 430.409 227.536 431.023 227.536C431.581 227.536 432.069 227.653 432.488 227.887C432.907 228.118 433.232 228.463 433.463 228.921C433.694 229.379 433.809 229.945 433.809 230.62V235.823H432.216V230.811C432.216 230.218 432.062 229.755 431.753 229.421C431.444 229.084 431.02 228.915 430.48 228.915C430.111 228.915 429.782 228.995 429.495 229.155C429.211 229.315 428.985 229.549 428.818 229.858C428.655 230.163 428.573 230.533 428.573 230.966ZM439.471 235.988C438.665 235.988 437.97 235.816 437.388 235.472C436.809 235.124 436.362 234.636 436.046 234.007C435.733 233.375 435.577 232.635 435.577 231.786C435.577 230.948 435.733 230.21 436.046 229.57C436.362 228.931 436.802 228.433 437.367 228.074C437.935 227.715 438.599 227.536 439.359 227.536C439.82 227.536 440.268 227.612 440.701 227.765C441.134 227.918 441.523 228.157 441.867 228.484C442.212 228.811 442.483 229.235 442.682 229.757C442.881 230.275 442.98 230.906 442.98 231.648V232.212H436.477V231.019H441.42C441.42 230.6 441.335 230.229 441.164 229.906C440.994 229.579 440.754 229.322 440.445 229.134C440.14 228.946 439.781 228.851 439.369 228.851C438.922 228.851 438.531 228.962 438.198 229.182C437.867 229.398 437.612 229.682 437.431 230.034C437.253 230.382 437.164 230.76 437.164 231.168V232.1C437.164 232.647 437.26 233.112 437.452 233.496C437.647 233.879 437.919 234.172 438.267 234.375C438.615 234.573 439.021 234.673 439.487 234.673C439.788 234.673 440.063 234.63 440.312 234.545C440.561 234.456 440.775 234.325 440.956 234.151C441.138 233.977 441.276 233.762 441.372 233.506L442.879 233.778C442.758 234.222 442.542 234.611 442.229 234.944C441.92 235.275 441.532 235.532 441.063 235.717C440.598 235.898 440.067 235.988 439.471 235.988ZM452.375 235.823H448.844V224.916H452.487C453.556 224.916 454.474 225.134 455.241 225.571C456.008 226.004 456.595 226.627 457.004 227.44C457.416 228.25 457.622 229.221 457.622 230.353C457.622 231.49 457.414 232.466 456.998 233.283C456.587 234.099 455.99 234.728 455.209 235.168C454.428 235.605 453.483 235.823 452.375 235.823ZM450.49 234.385H452.285C453.116 234.385 453.806 234.229 454.357 233.917C454.907 233.601 455.319 233.144 455.592 232.548C455.866 231.948 456.002 231.216 456.002 230.353C456.002 229.498 455.866 228.772 455.592 228.175C455.323 227.579 454.92 227.126 454.383 226.817C453.847 226.508 453.181 226.354 452.386 226.354H450.49V234.385ZM459.54 235.823V227.642H461.133V235.823H459.54ZM460.345 226.38C460.068 226.38 459.83 226.288 459.631 226.103C459.436 225.915 459.338 225.691 459.338 225.432C459.338 225.169 459.436 224.946 459.631 224.761C459.83 224.573 460.068 224.479 460.345 224.479C460.621 224.479 460.858 224.573 461.053 224.761C461.252 224.946 461.351 225.169 461.351 225.432C461.351 225.691 461.252 225.915 461.053 226.103C460.858 226.288 460.621 226.38 460.345 226.38ZM469.405 229.64L467.962 229.895C467.902 229.711 467.806 229.535 467.674 229.368C467.547 229.201 467.373 229.065 467.153 228.958C466.932 228.851 466.657 228.798 466.327 228.798C465.876 228.798 465.5 228.899 465.198 229.102C464.896 229.301 464.745 229.558 464.745 229.874C464.745 230.147 464.846 230.368 465.049 230.535C465.251 230.701 465.578 230.838 466.029 230.945L467.328 231.243C468.081 231.417 468.642 231.685 469.011 232.047C469.381 232.409 469.565 232.88 469.565 233.458C469.565 233.948 469.423 234.385 469.139 234.769C468.859 235.149 468.466 235.447 467.962 235.663C467.461 235.88 466.881 235.988 466.22 235.988C465.304 235.988 464.557 235.793 463.978 235.402C463.399 235.008 463.044 234.449 462.913 233.725L464.452 233.49C464.548 233.892 464.745 234.195 465.043 234.401C465.342 234.604 465.73 234.705 466.21 234.705C466.732 234.705 467.149 234.596 467.461 234.38C467.774 234.16 467.93 233.892 467.93 233.576C467.93 233.32 467.834 233.105 467.643 232.931C467.454 232.757 467.165 232.626 466.774 232.537L465.39 232.234C464.626 232.06 464.062 231.783 463.696 231.403C463.334 231.023 463.153 230.542 463.153 229.959C463.153 229.476 463.288 229.054 463.557 228.692C463.827 228.33 464.2 228.047 464.676 227.845C465.152 227.639 465.697 227.536 466.311 227.536C467.195 227.536 467.891 227.728 468.399 228.111C468.907 228.491 469.242 229.001 469.405 229.64ZM474.762 235.988C473.97 235.988 473.289 235.809 472.717 235.45C472.149 235.088 471.712 234.589 471.407 233.954C471.101 233.318 470.949 232.59 470.949 231.77C470.949 230.939 471.105 230.206 471.417 229.57C471.73 228.931 472.17 228.433 472.738 228.074C473.306 227.715 473.976 227.536 474.746 227.536C475.367 227.536 475.921 227.651 476.408 227.882C476.894 228.109 477.287 228.429 477.585 228.841C477.887 229.253 478.066 229.734 478.123 230.284H476.573C476.488 229.901 476.292 229.57 475.987 229.294C475.685 229.017 475.28 228.878 474.773 228.878C474.329 228.878 473.94 228.995 473.606 229.23C473.276 229.46 473.019 229.791 472.834 230.22C472.649 230.646 472.557 231.151 472.557 231.733C472.557 232.329 472.648 232.844 472.829 233.277C473.01 233.711 473.265 234.046 473.596 234.284C473.929 234.522 474.322 234.641 474.773 234.641C475.075 234.641 475.348 234.586 475.593 234.476C475.841 234.362 476.049 234.201 476.216 233.991C476.386 233.782 476.505 233.53 476.573 233.235H478.123C478.066 233.764 477.894 234.236 477.606 234.652C477.319 235.067 476.933 235.394 476.45 235.632C475.971 235.869 475.408 235.988 474.762 235.988ZM485.008 232.431V227.642H486.606V235.823H485.04V234.407H484.955C484.767 234.843 484.465 235.207 484.049 235.498C483.637 235.786 483.124 235.93 482.51 235.93C481.985 235.93 481.519 235.814 481.115 235.584C480.713 235.349 480.397 235.003 480.167 234.545C479.939 234.087 479.826 233.521 479.826 232.846V227.642H481.418V232.654C481.418 233.212 481.573 233.656 481.882 233.986C482.191 234.316 482.592 234.481 483.085 234.481C483.384 234.481 483.68 234.407 483.975 234.257C484.273 234.108 484.52 233.883 484.715 233.581C484.914 233.279 485.012 232.896 485.008 232.431ZM494.876 229.64L493.432 229.895C493.372 229.711 493.276 229.535 493.145 229.368C493.017 229.201 492.843 229.065 492.623 228.958C492.403 228.851 492.128 228.798 491.797 228.798C491.346 228.798 490.97 228.899 490.668 229.102C490.366 229.301 490.216 229.558 490.216 229.874C490.216 230.147 490.317 230.368 490.519 230.535C490.721 230.701 491.048 230.838 491.499 230.945L492.799 231.243C493.551 231.417 494.112 231.685 494.482 232.047C494.851 232.409 495.036 232.88 495.036 233.458C495.036 233.948 494.894 234.385 494.609 234.769C494.329 235.149 493.937 235.447 493.432 235.663C492.932 235.88 492.351 235.988 491.691 235.988C490.775 235.988 490.027 235.793 489.449 235.402C488.87 235.008 488.515 234.449 488.383 233.725L489.923 233.49C490.018 233.892 490.216 234.195 490.514 234.401C490.812 234.604 491.201 234.705 491.68 234.705C492.202 234.705 492.619 234.596 492.932 234.38C493.244 234.16 493.4 233.892 493.4 233.576C493.4 233.32 493.305 233.105 493.113 232.931C492.925 232.757 492.635 232.626 492.245 232.537L490.86 232.234C490.097 232.06 489.532 231.783 489.166 231.403C488.804 231.023 488.623 230.542 488.623 229.959C488.623 229.476 488.758 229.054 489.028 228.692C489.298 228.33 489.67 228.047 490.146 227.845C490.622 227.639 491.167 227.536 491.781 227.536C492.665 227.536 493.361 227.728 493.869 228.111C494.377 228.491 494.712 229.001 494.876 229.64ZM502.917 229.64L501.473 229.895C501.413 229.711 501.317 229.535 501.186 229.368C501.058 229.201 500.884 229.065 500.664 228.958C500.444 228.851 500.169 228.798 499.838 228.798C499.387 228.798 499.011 228.899 498.709 229.102C498.407 229.301 498.256 229.558 498.256 229.874C498.256 230.147 498.358 230.368 498.56 230.535C498.762 230.701 499.089 230.838 499.54 230.945L500.84 231.243C501.592 231.417 502.153 231.685 502.523 232.047C502.892 232.409 503.077 232.88 503.077 233.458C503.077 233.948 502.934 234.385 502.65 234.769C502.37 235.149 501.978 235.447 501.473 235.663C500.973 235.88 500.392 235.988 499.732 235.988C498.816 235.988 498.068 235.793 497.49 235.402C496.911 235.008 496.556 234.449 496.424 233.725L497.964 233.49C498.059 233.892 498.256 234.195 498.555 234.401C498.853 234.604 499.242 234.705 499.721 234.705C500.243 234.705 500.66 234.596 500.973 234.38C501.285 234.16 501.441 233.892 501.441 233.576C501.441 233.32 501.346 233.105 501.154 232.931C500.966 232.757 500.676 232.626 500.286 232.537L498.901 232.234C498.138 232.06 497.573 231.783 497.207 231.403C496.845 231.023 496.664 230.542 496.664 229.959C496.664 229.476 496.799 229.054 497.069 228.692C497.339 228.33 497.711 228.047 498.187 227.845C498.663 227.639 499.208 227.536 499.822 227.536C500.706 227.536 501.402 227.728 501.91 228.111C502.418 228.491 502.753 229.001 502.917 229.64ZM504.827 235.823V227.642H506.42V235.823H504.827ZM505.632 226.38C505.355 226.38 505.117 226.288 504.918 226.103C504.723 225.915 504.625 225.691 504.625 225.432C504.625 225.169 504.723 224.946 504.918 224.761C505.117 224.573 505.355 224.479 505.632 224.479C505.909 224.479 506.145 224.573 506.34 224.761C506.539 224.946 506.638 225.169 506.638 225.432C506.638 225.691 506.539 225.915 506.34 226.103C506.145 226.288 505.909 226.38 505.632 226.38ZM512.008 235.988C511.241 235.988 510.572 235.813 510 235.461C509.429 235.11 508.985 234.618 508.669 233.986C508.353 233.354 508.195 232.615 508.195 231.77C508.195 230.922 508.353 230.179 508.669 229.544C508.985 228.908 509.429 228.415 510 228.063C510.572 227.712 511.241 227.536 512.008 227.536C512.775 227.536 513.444 227.712 514.016 228.063C514.588 228.415 515.032 228.908 515.348 229.544C515.664 230.179 515.822 230.922 515.822 231.77C515.822 232.615 515.664 233.354 515.348 233.986C515.032 234.618 514.588 235.11 514.016 235.461C513.444 235.813 512.775 235.988 512.008 235.988ZM512.014 234.652C512.511 234.652 512.923 234.52 513.249 234.257C513.576 233.995 513.817 233.645 513.974 233.208C514.133 232.771 514.213 232.29 514.213 231.765C514.213 231.243 514.133 230.764 513.974 230.327C513.817 229.887 513.576 229.533 513.249 229.267C512.923 229.001 512.511 228.867 512.014 228.867C511.513 228.867 511.097 229.001 510.767 229.267C510.441 229.533 510.197 229.887 510.038 230.327C509.881 230.764 509.803 231.243 509.803 231.765C509.803 232.29 509.881 232.771 510.038 233.208C510.197 233.645 510.441 233.995 510.767 234.257C511.097 234.52 511.513 234.652 512.014 234.652ZM519.192 230.966V235.823H517.599V227.642H519.128V228.974H519.229C519.417 228.541 519.712 228.193 520.113 227.93C520.518 227.667 521.027 227.536 521.642 227.536C522.199 227.536 522.687 227.653 523.106 227.887C523.525 228.118 523.85 228.463 524.081 228.921C524.312 229.379 524.427 229.945 524.427 230.62V235.823H522.835V230.811C522.835 230.218 522.68 229.755 522.371 229.421C522.062 229.084 521.638 228.915 521.098 228.915C520.729 228.915 520.401 228.995 520.113 229.155C519.829 229.315 519.604 229.549 519.437 229.858C519.273 230.163 519.192 230.533 519.192 230.966Z" fill="#141414"/>
</g>
<defs>
<filter id="filter0_d_811_381" x="-6.31387" y="0.146774" width="255.485" height="120.615" filterUnits="userSpaceOnUse" color-interpolation-filters="sRGB">
<feFlood flood-opacity="0" result="BackgroundImageFix"/>
<feColorMatrix in="SourceAlpha" type="matrix" values="0 0 0 0 0 0 0 0 0 0 0 0 0 0 0 0 0 0 127 0" result="hardAlpha"/>
<feOffset dy="16.8532"/>
<feGaussianBlur stdDeviation="16.8532"/>
<feComposite in2="hardAlpha" operator="out"/>
<feColorMatrix type="matrix" values="0 0 0 0 0 0 0 0 0 0 0 0 0 0 0 0 0 0 0.06 0"/>
<feBlend mode="normal" in2="BackgroundImageFix" result="effect1_dropShadow_811_381"/>
<feBlend mode="normal" in="SourceGraphic" in2="effect1_dropShadow_811_381" result="shape"/>
</filter>
<filter id="filter1_d_811_381" x="237.758" y="0.487595" width="188.485" height="119.932" filterUnits="userSpaceOnUse" color-interpolation-filters="sRGB">
<feFlood flood-opacity="0" result="BackgroundImageFix"/>
<feColorMatrix in="SourceAlpha" type="matrix" values="0 0 0 0 0 0 0 0 0 0 0 0 0 0 0 0 0 0 127 0" result="hardAlpha"/>
<feOffset dy="16.8532"/>
<feGaussianBlur stdDeviation="16.8532"/>
<feComposite in2="hardAlpha" operator="out"/>
<feColorMatrix type="matrix" values="0 0 0 0 0 0 0 0 0 0 0 0 0 0 0 0 0 0 0.06 0"/>
<feBlend mode="normal" in2="BackgroundImageFix" result="effect1_dropShadow_811_381"/>
<feBlend mode="normal" in="SourceGraphic" in2="effect1_dropShadow_811_381" result="shape"/>
</filter>
<filter id="filter2_d_811_381" x="414.83" y="0.146774" width="202.484" height="120.615" filterUnits="userSpaceOnUse" color-interpolation-filters="sRGB">
<feFlood flood-opacity="0" result="BackgroundImageFix"/>
<feColorMatrix in="SourceAlpha" type="matrix" values="0 0 0 0 0 0 0 0 0 0 0 0 0 0 0 0 0 0 127 0" result="hardAlpha"/>
<feOffset dy="16.8532"/>
<feGaussianBlur stdDeviation="16.8532"/>
<feComposite in2="hardAlpha" operator="out"/>
<feColorMatrix type="matrix" values="0 0 0 0 0 0 0 0 0 0 0 0 0 0 0 0 0 0 0.06 0"/>
<feBlend mode="normal" in2="BackgroundImageFix" result="effect1_dropShadow_811_381"/>
<feBlend mode="normal" in="SourceGraphic" in2="effect1_dropShadow_811_381" result="shape"/>
</filter>
<filter id="filter3_d_811_381" x="14.7436" y="130.195" width="293.538" height="120.133" filterUnits="userSpaceOnUse" color-interpolation-filters="sRGB">
<feFlood flood-opacity="0" result="BackgroundImageFix"/>
<feColorMatrix in="SourceAlpha" type="matrix" values="0 0 0 0 0 0 0 0 0 0 0 0 0 0 0 0 0 0 127 0" result="hardAlpha"/>
<feOffset dy="17.8054"/>
<feGaussianBlur stdDeviation="17.8054"/>
<feComposite in2="hardAlpha" operator="out"/>
<feColorMatrix type="matrix" values="0 0 0 0 0 0 0 0 0 0 0 0 0 0 0 0 0 0 0.04 0"/>
<feBlend mode="normal" in2="BackgroundImageFix" result="effect1_dropShadow_811_381"/>
<feBlend mode="normal" in="SourceGraphic" in2="effect1_dropShadow_811_381" result="shape"/>
</filter>
<filter id="filter4_d_811_381" x="245.962" y="130.195" width="293.538" height="120.133" filterUnits="userSpaceOnUse" color-interpolation-filters="sRGB">
<feFlood flood-opacity="0" result="BackgroundImageFix"/>
<feColorMatrix in="SourceAlpha" type="matrix" values="0 0 0 0 0 0 0 0 0 0 0 0 0 0 0 0 0 0 127 0" result="hardAlpha"/>
<feOffset dy="17.8054"/>
<feGaussianBlur stdDeviation="17.8054"/>
<feComposite in2="hardAlpha" operator="out"/>
<feColorMatrix type="matrix" values="0 0 0 0 0 0 0 0 0 0 0 0 0 0 0 0 0 0 0.04 0"/>
<feBlend mode="normal" in2="BackgroundImageFix" result="effect1_dropShadow_811_381"/>
<feBlend mode="normal" in="SourceGraphic" in2="effect1_dropShadow_811_381" result="shape"/>
</filter>
<filter id="filter5_d_811_381" x="71.4995" y="188.062" width="293.538" height="120.133" filterUnits="userSpaceOnUse" color-interpolation-filters="sRGB">
<feFlood flood-opacity="0" result="BackgroundImageFix"/>
<feColorMatrix in="SourceAlpha" type="matrix" values="0 0 0 0 0 0 0 0 0 0 0 0 0 0 0 0 0 0 127 0" result="hardAlpha"/>
<feOffset dy="17.8054"/>
<feGaussianBlur stdDeviation="17.8054"/>
<feComposite in2="hardAlpha" operator="out"/>
<feColorMatrix type="matrix" values="0 0 0 0 0 0 0 0 0 0 0 0 0 0 0 0 0 0 0.04 0"/>
<feBlend mode="normal" in2="BackgroundImageFix" result="effect1_dropShadow_811_381"/>
<feBlend mode="normal" in="SourceGraphic" in2="effect1_dropShadow_811_381" result="shape"/>
</filter>
<filter id="filter6_d_811_381" x="302.718" y="188.062" width="293.538" height="120.133" filterUnits="userSpaceOnUse" color-interpolation-filters="sRGB">
<feFlood flood-opacity="0" result="BackgroundImageFix"/>
<feColorMatrix in="SourceAlpha" type="matrix" values="0 0 0 0 0 0 0 0 0 0 0 0 0 0 0 0 0 0 127 0" result="hardAlpha"/>
<feOffset dy="17.8054"/>
<feGaussianBlur stdDeviation="17.8054"/>
<feComposite in2="hardAlpha" operator="out"/>
<feColorMatrix type="matrix" values="0 0 0 0 0 0 0 0 0 0 0 0 0 0 0 0 0 0 0.04 0"/>
<feBlend mode="normal" in2="BackgroundImageFix" result="effect1_dropShadow_811_381"/>
<feBlend mode="normal" in="SourceGraphic" in2="effect1_dropShadow_811_381" result="shape"/>
</filter>
<linearGradient id="paint0_linear_811_381" x1="386.893" y1="116.502" x2="262.893" y2="116.502" gradientUnits="userSpaceOnUse">
<stop stop-color="#89FFBF" stop-opacity="0"/>
<stop offset="0.515" stop-color="#A4FA85" stop-opacity="0.5"/>
<stop offset="1" stop-color="#A8E5A4"/>
</linearGradient>
<linearGradient id="paint1_linear_811_381" x1="36.2598" y1="43.6574" x2="71.7276" y2="43.6574" gradientUnits="userSpaceOnUse">
<stop stop-color="#89FFBF"/>
<stop offset="0.515" stop-color="#A4FA85"/>
<stop offset="1" stop-color="#A8E5A4"/>
</linearGradient>
<linearGradient id="paint2_linear_811_381" x1="227.464" y1="44.1027" x2="259.464" y2="44.1027" gradientUnits="userSpaceOnUse">
<stop stop-color="#89FFBF" stop-opacity="0"/>
<stop offset="0.515" stop-color="#A4FA85" stop-opacity="0.5"/>
<stop offset="1" stop-color="#A8E5A4"/>
</linearGradient>
<linearGradient id="paint3_linear_811_381" x1="404.536" y1="44.1027" x2="436.536" y2="44.1027" gradientUnits="userSpaceOnUse">
<stop stop-color="#89FFBF" stop-opacity="0"/>
<stop offset="0.515" stop-color="#A4FA85" stop-opacity="0.5"/>
<stop offset="1" stop-color="#A8E5A4"/>
</linearGradient>
<linearGradient id="paint4_linear_811_381" x1="64.1436" y1="172.145" x2="86.4004" y2="172.145" gradientUnits="userSpaceOnUse">
<stop stop-color="#89FFBF"/>
<stop offset="0.515" stop-color="#A4FA85"/>
<stop offset="1" stop-color="#A8E5A4"/>
</linearGradient>
<linearGradient id="paint5_linear_811_381" x1="295.362" y1="172.145" x2="317.619" y2="172.145" gradientUnits="userSpaceOnUse">
<stop stop-color="#89FFBF"/>
<stop offset="0.515" stop-color="#A4FA85"/>
<stop offset="1" stop-color="#A8E5A4"/>
</linearGradient>
<linearGradient id="paint6_linear_811_381" x1="120.892" y1="230.014" x2="143.148" y2="230.014" gradientUnits="userSpaceOnUse">
<stop stop-color="#89FFBF"/>
<stop offset="0.515" stop-color="#A4FA85"/>
<stop offset="1" stop-color="#A8E5A4"/>
</linearGradient>
<linearGradient id="paint7_linear_811_381" x1="352.116" y1="230.015" x2="374.373" y2="230.015" gradientUnits="userSpaceOnUse">
<stop stop-color="#89FFBF"/>
<stop offset="0.515" stop-color="#A4FA85"/>
<stop offset="1" stop-color="#A8E5A4"/>
</linearGradient>
<clipPath id="clip0_811_381">
<rect width="12.9594" height="19.4391" fill="white" transform="translate(291.584 34.0513)"/>
</clipPath>
<clipPath id="clip1_811_381">
<rect x="65.3525" y="162.409" width="20.0942" height="20.0942" rx="10.0471" fill="white"/>
</clipPath>
<clipPath id="clip2_811_381">
<rect x="296.571" y="162.409" width="20.0942" height="20.0942" rx="10.0471" fill="white"/>
</clipPath>
<clipPath id="clip3_811_381">
<rect x="122.108" y="220.276" width="20.0942" height="20.0942" rx="10.0471" fill="white"/>
</clipPath>
<clipPath id="clip4_811_381">
<rect x="353.327" y="220.276" width="20.0942" height="20.0942" rx="10.0471" fill="white"/>
</clipPath>
</defs>
</svg>
