<svg width="155" height="37" viewBox="0 0 155 37" fill="none" xmlns="http://www.w3.org/2000/svg">
<path d="M59.0572 29.4494H10.2169C9.83819 29.4494 9.62045 29.0488 9.87394 28.7558C10.6864 27.8167 12.1761 26.7377 13.2286 26.7377C14.8924 26.7377 15.1301 27.9703 16.5563 27.9703C18.9333 27.9703 21.5479 19.5886 25.5887 19.5886C29.6295 19.5886 29.6295 24.519 34.1457 24.519C38.6619 24.519 40.5634 8.24866 46.9812 8.24866C52.6109 8.24866 58.2405 20.4179 60.0301 28.1967C60.1792 28.8449 59.6973 29.4494 59.0572 29.4494Z" fill="white"/>
<path d="M66.6069 25.2468H68.4266V21.0093C68.4266 19.1662 69.353 18.1843 70.5606 18.1843C71.6193 18.1843 72.281 19.0111 72.281 20.372V25.2468H74.1007V20.0619C74.1007 17.8742 72.86 16.4617 70.9411 16.4617C69.8658 16.4617 68.9229 16.9441 68.4266 17.8053V12.3276H66.6069V25.2468Z" fill="white"/>
<path d="M78.3811 13.4817C78.3811 12.7927 77.8517 12.2242 77.1735 12.2242C76.5118 12.2242 75.9493 12.7927 75.9493 13.4817C75.9493 14.188 76.5118 14.7564 77.1735 14.7564C77.8517 14.7564 78.3811 14.188 78.3811 13.4817ZM76.2637 25.2468H78.0833V16.634H76.2637V25.2468Z" fill="white"/>
<path d="M80.3631 25.2468H82.1828V21.0093C82.1828 19.2006 82.9934 18.1843 84.1679 18.1843C85.1604 18.1843 85.6402 19.0628 85.6402 20.4064V25.2468H87.4599V21.0093C87.4599 19.2006 88.2539 18.1843 89.4284 18.1843C90.421 18.1843 90.9007 19.0628 90.9007 20.4064V25.2468H92.7204V20.0964C92.7204 17.8915 91.612 16.4617 89.7427 16.4617C88.6509 16.4617 87.5922 17.0646 87.0959 18.1671C86.6493 17.0991 85.756 16.4617 84.5318 16.4617C83.4731 16.4617 82.646 16.9957 82.1828 17.8053V16.634H80.3631V25.2468Z" fill="white"/>
<path d="M94.2869 20.9404C94.2869 23.4037 96.0073 25.4191 98.2737 25.4191C99.4647 25.4191 100.457 24.7817 100.92 24.0927V25.2468H102.74V16.634H100.92V17.7881C100.457 17.0991 99.4647 16.4617 98.2737 16.4617C96.0073 16.4617 94.2869 18.4771 94.2869 20.9404ZM101.069 20.9404C101.069 22.4907 100.077 23.6965 98.6045 23.6965C97.1322 23.6965 96.1397 22.4907 96.1397 20.9404C96.1397 19.3901 97.1322 18.1843 98.6045 18.1843C100.077 18.1843 101.069 19.3901 101.069 20.9404Z" fill="white"/>
<path d="M105.04 25.2468H106.86V12.3276H105.04V25.2468Z" fill="white"/>
<path d="M108.544 20.9404C108.544 23.4037 110.264 25.4191 112.531 25.4191C113.722 25.4191 114.714 24.7817 115.177 24.0927V25.2468H116.997V16.634H115.177V17.7881C114.714 17.0991 113.722 16.4617 112.531 16.4617C110.264 16.4617 108.544 18.4771 108.544 20.9404ZM115.326 20.9404C115.326 22.4907 114.334 23.6965 112.861 23.6965C111.389 23.6965 110.397 22.4907 110.397 20.9404C110.397 19.3901 111.389 18.1843 112.861 18.1843C114.334 18.1843 115.326 19.3901 115.326 20.9404Z" fill="white"/>
<path d="M121.944 28.847L127.254 16.634H125.236L122.705 22.7319L120.157 16.634H118.155L121.712 24.7817L119.942 28.847H121.944Z" fill="white"/>
<path d="M127.567 20.9404C127.567 23.4037 129.287 25.4191 131.553 25.4191C132.744 25.4191 133.737 24.7817 134.2 24.0927V25.2468H136.02V16.634H134.2V17.7881C133.737 17.0991 132.744 16.4617 131.553 16.4617C129.287 16.4617 127.567 18.4771 127.567 20.9404ZM134.349 20.9404C134.349 22.4907 133.356 23.6965 131.884 23.6965C130.412 23.6965 129.419 22.4907 129.419 20.9404C129.419 19.3901 130.412 18.1843 131.884 18.1843C133.356 18.1843 134.349 19.3901 134.349 20.9404Z" fill="white"/>
<path d="M144.473 22.8697C144.473 21.5605 143.762 20.6648 142.273 20.2686L140.884 19.8896C140.189 19.7002 139.775 19.4073 139.775 18.8561C139.775 18.3049 140.288 17.9776 140.983 17.9776C141.628 17.9776 142.174 18.3221 142.339 19.0456H144.159C144.027 17.4953 142.786 16.4617 140.999 16.4617C139.147 16.4617 137.923 17.4264 137.923 18.8733C137.923 20.1308 138.617 21.0954 140.04 21.4744L141.396 21.8534C142.257 22.0773 142.621 22.4046 142.621 22.9903C142.621 23.5759 142.075 23.9032 141.281 23.9032C140.47 23.9032 139.726 23.5587 139.577 22.6285H137.691C137.79 24.3511 139.296 25.4191 141.231 25.4191C143.084 25.4191 144.473 24.5406 144.473 22.8697Z" fill="white"/>
</svg>
