
<svg width="155" height="29" viewBox="0 0 155 29" fill="none" xmlns="http://www.w3.org/2000/svg">
<g clip-path="url(#clip0_559_1805)">
<path d="M49.6666 25.1519C50.6125 26.0978 51.7235 26.8525 52.9629 27.3765C54.2232 27.9215 55.5884 28.194 56.9509 28.194C58.2532 28.215 59.5345 27.9844 60.7293 27.5233C61.9267 27.0621 63.0168 26.3677 63.9627 25.5083C64.5837 24.9999 65.6658 23.9781 66.4362 22.3325C67.2694 20.5508 67.314 18.9393 67.2799 18.1244V5.48956C67.2799 5.0284 66.9236 4.60654 66.4414 4.54365H62.3093C61.7853 4.54365 61.3634 4.98385 61.3634 5.48956V17.7183C61.3634 18.3052 61.2376 18.8948 61.007 19.4398C60.7765 19.9638 60.462 20.4486 60.0611 20.8468C59.2226 21.6853 58.1667 22.1701 56.9692 22.1491C56.3823 22.1491 55.7927 22.0233 55.2687 21.7928C54.197 21.3316 53.3585 20.4695 52.9183 19.4005C52.7087 18.8764 52.6039 18.3078 52.6039 17.7419V5.45812C52.6039 4.93407 52.1847 4.51221 51.658 4.51221H47.628C47.104 4.51221 46.6821 4.95241 46.6821 5.45812V17.7392C46.6821 19.1253 46.9546 20.5115 47.4996 21.7901C48.0237 23.0714 48.76 24.1824 49.6614 25.1493L49.6666 25.1519Z" fill="#141414"/>
<path d="M108.176 4.51514H92.0194C91.4849 4.51514 91.0552 4.96582 91.0552 5.47939V9.45955C91.0552 9.99408 91.4849 10.4238 92.0194 10.4238H93.0911C93.6256 10.4238 94.0554 10.8535 94.0554 11.3881V17.6059C94.0554 19.0208 94.3331 20.4358 94.8912 21.7197C95.9839 24.2482 97.9988 26.2842 100.527 27.3768C101.835 27.9349 103.226 28.2127 104.641 28.2127H108.262C108.797 28.2127 109.227 27.762 109.227 27.2484V23.263C109.227 22.7285 108.797 22.2988 108.262 22.2988H104.662C104.041 22.2988 103.441 22.1704 102.883 21.9346C102.348 21.6987 101.853 21.3555 101.426 20.9494C100.996 20.5196 100.677 20.027 100.462 19.4925C100.226 18.9344 100.098 18.3134 100.119 17.6924V11.409C100.119 10.9164 100.483 10.5103 100.975 10.4448H108.197C108.731 10.4448 109.161 9.99408 109.161 9.48051V5.52131C109.119 4.9632 108.765 4.51514 108.176 4.51514Z" fill="#141414"/>
<path d="M153.74 28.197H149.123C148.848 28.197 148.599 28.0712 148.411 27.8616L138.954 16.9928V23.1058C138.959 23.1477 138.962 23.1923 138.962 23.2342V27.272C138.962 27.7908 138.54 28.2127 138.021 28.2127H133.989C133.465 28.2127 133.043 27.7908 133.043 27.272C133.043 27.272 133.022 26.9445 133.022 26.8633V5.86457C133.022 5.78334 133.03 5.70473 133.043 5.62874V5.45581C133.043 4.937 133.465 4.51514 133.989 4.51514H138.021C138.54 4.51514 138.962 4.937 138.962 5.45581V9.49361C138.962 9.53554 138.957 9.58008 138.954 9.61939V15.2293L147.837 4.85053C148.005 4.64091 148.28 4.51514 148.55 4.51514H153.166C153.945 4.5361 154.364 5.43747 153.884 6.04798L145.756 15.5595C145.442 15.9158 145.442 16.4399 145.756 16.7963L154.474 26.6641C154.933 27.2746 154.516 28.176 153.74 28.197Z" fill="#141414"/>
<path d="M89.7739 12.1188C89.6875 11.2646 89.4778 10.434 89.1425 9.65838C88.7127 8.64958 88.0996 7.74298 87.3161 6.95952L87.303 6.94118C86.496 6.18393 85.571 5.59175 84.5701 5.18299C83.5404 4.74541 82.3927 4.51221 81.2529 4.51221H70.5832C70.0539 4.51221 69.6216 4.94455 69.6216 5.47384V27.2874C69.6216 27.7984 70.0356 28.2098 70.5439 28.2098H74.6132C75.1241 28.2098 75.5407 27.7931 75.5407 27.2822V20.9857H81.2529C82.3953 20.9857 83.543 20.7525 84.5649 20.3202C85.5737 19.9088 86.4934 19.314 87.3057 18.5594L87.3188 18.541C88.0996 17.7628 88.7153 16.8536 89.1398 15.8474C89.5512 14.8989 89.7739 13.8875 89.808 12.8341C89.808 12.7817 89.808 12.7319 89.808 12.6795L89.7739 12.1109V12.1188ZM83.75 13.6019C83.467 14.2622 82.9429 14.7783 82.28 15.0482C81.963 15.1766 81.6066 15.2421 81.2529 15.2421H75.5512V10.2637H81.2529C81.604 10.2637 81.9577 10.3318 82.2722 10.4576C82.9377 10.7274 83.4617 11.2436 83.75 11.9092C83.8653 12.1791 83.9386 12.4804 83.9596 12.7765C83.9334 13.0595 83.86 13.3425 83.75 13.6019Z" fill="#141414"/>
<path d="M121.411 28.2205C118.186 28.2205 115.526 27.1829 113.506 25.1365C111.491 23.0927 110.469 20.3467 110.469 16.9797V16.3822C110.469 14.1446 110.909 12.1112 111.779 10.3399C112.657 8.55031 113.91 7.13538 115.503 6.13182C117.098 5.13089 118.899 4.62256 120.853 4.62256C123.964 4.62256 126.411 5.64184 128.13 7.64895C129.82 9.62724 130.679 12.4388 130.679 16.0023V16.6233C130.679 17.695 129.807 18.5675 128.735 18.5675H116.669C116.868 19.8855 117.381 20.9546 118.183 21.7511C119.116 22.6787 120.264 23.1294 121.692 23.1294C123.337 23.1294 124.695 22.6106 125.842 21.5415C126.212 21.1983 126.689 21.0096 127.189 21.0096C127.69 21.0096 128.161 21.1983 128.523 21.5441L129.277 22.2647C130.037 22.9905 130.082 24.2089 129.377 24.9819C128.594 25.8413 127.637 26.5514 126.542 27.0912C125.019 27.8406 123.295 28.2205 121.414 28.2205H121.411ZM124.65 13.7961C124.53 12.4833 124.152 11.4588 123.534 10.7801C122.892 10.0753 122.009 9.73205 120.835 9.73205C119.661 9.73205 118.775 10.1198 118.073 10.9216C117.455 11.6265 117.017 12.5934 116.771 13.7961H124.65Z" fill="#141414"/>
<path d="M121.412 27.6105C118.341 27.6105 115.851 26.6436 113.944 24.7099C112.036 22.7761 111.083 20.2004 111.083 16.9827V16.3853C111.083 14.2315 111.497 12.3082 112.33 10.6129C113.16 8.9176 114.326 7.59962 115.83 6.6537C117.332 5.71041 119.009 5.23877 120.856 5.23877C123.793 5.23877 126.065 6.17682 127.666 8.0503C129.267 9.92378 130.069 12.5781 130.069 16.008V16.629C130.069 17.3653 129.471 17.9627 128.735 17.9627H116.669C116.289 17.9627 115.993 18.3033 116.053 18.678C116.286 20.127 116.852 21.2957 117.751 22.1918C118.794 23.2294 120.107 23.7482 121.689 23.7482C123.479 23.7482 125.001 23.1639 126.256 21.9979C126.778 21.5131 127.582 21.5027 128.096 21.9953L128.85 22.7158C129.374 23.2163 129.409 24.0443 128.921 24.5788C128.185 25.3859 127.299 26.0436 126.267 26.5519C124.823 27.262 123.206 27.6183 121.412 27.6183V27.6105ZM120.832 9.12198C119.501 9.12198 118.43 9.58839 117.612 10.5186C116.897 11.3335 116.407 12.4287 116.145 13.8044C116.085 14.1162 116.32 14.4096 116.637 14.4096H125.279V14.0507C125.172 12.4287 124.742 11.2025 123.982 10.3718C123.225 9.54122 122.174 9.1246 120.83 9.1246L120.832 9.12198Z" fill="#141414"/>
<path d="M7.90728 10.7381L0.976712 18.5674C0.976712 18.5674 -0.370097 23.0585 2.54886 25.9774C2.54886 25.9774 6.14123 30.0205 11.3057 27.1015L19.6146 18.7927C19.6146 18.7927 20.7386 17.894 22.3082 18.7927L20.288 12.7294L13.5513 10.4839L7.90466 10.7407L7.90728 10.7381Z" fill="url(#paint0_linear_559_1805)"/>
<path d="M7.26483 11.3799L16.4724 2.17237C16.4724 2.17237 20.0648 -0.971931 24.5559 2.17237L39.376 16.9925C39.376 16.9925 42.7456 21.9317 38.2519 25.9747C38.2519 25.9747 35.1076 30.2405 29.2697 26.4228L15.123 12.7241C15.123 12.7241 12.4293 9.35448 7.26221 11.3773L7.26483 11.3799Z" fill="url(#paint1_linear_559_1805)"/>
</g>
<defs>
<linearGradient id="paint0_linear_559_1805" x1="0.666504" y1="19.3501" x2="22.3082" y2="19.3501" gradientUnits="userSpaceOnUse">
<stop stop-color="#89FFBF"/>
<stop offset="0.515" stop-color="#A4FA85"/>
<stop offset="1" stop-color="#A8E5A4"/>
</linearGradient>
<linearGradient id="paint1_linear_559_1805" x1="7.26221" y1="14.436" x2="40.5889" y2="14.436" gradientUnits="userSpaceOnUse">
<stop stop-color="#89FFBF"/>
<stop offset="0.515" stop-color="#A4FA85"/>
<stop offset="1" stop-color="#A8E5A4"/>
</linearGradient>
<clipPath id="clip0_559_1805">
<rect width="154" height="27.4445" fill="white" transform="translate(0.666504 0.775879)"/>
</clipPath>
</defs>
</svg>
