<svg width="155" height="37" viewBox="0 0 155 37" fill="none" xmlns="http://www.w3.org/2000/svg">
<g clip-path="url(#clip0_623_1055)">
<path d="M24.2541 11.4538L23.2324 15.25L29.0803 11.4322L25.2557 25.8375L29.14 25.8408L34.79 4.56348" fill="white"/>
<path d="M17.9598 19.7849L16.3511 25.8409H24.3123L27.57 13.5212L17.9598 19.7849ZM45.6144 14.4531C45.4198 15.1832 45.0449 15.7196 44.4857 16.0621C43.9278 16.4039 43.1449 16.5755 42.1342 16.5755H38.9233L40.0507 12.332H43.2617C44.271 12.332 44.9644 12.5023 45.3407 12.8494C45.7169 13.1964 45.8077 13.7269 45.6144 14.4603V14.4531ZM48.9389 14.3686C49.3476 12.8363 49.1789 11.6575 48.4316 10.8324C47.6857 10.0139 46.3766 9.60132 44.5084 9.60132H37.3424L33.0287 25.8481H36.5102L38.2486 19.2996H40.532C41.0445 19.2996 41.4479 19.3848 41.7424 19.5485C42.0376 19.7187 42.2108 20.0134 42.264 20.4391L42.8854 25.8481H46.6153L46.0108 20.8058C45.8875 19.6794 45.377 19.018 44.4799 18.8216C45.6235 18.4876 46.5816 17.931 47.3535 17.1583C48.1201 16.3912 48.6677 15.4298 48.9389 14.3752V14.3686ZM57.4016 20.0331C57.1097 21.1332 56.6621 21.9649 56.0569 22.5477C55.451 23.1305 54.7271 23.4186 53.8825 23.4186C53.0224 23.4186 52.4392 23.137 52.1311 22.5673C51.8223 21.9976 51.8119 21.1725 52.0987 20.092C52.3854 19.0115 52.8427 18.1667 53.4719 17.5577C54.1011 16.9487 54.8367 16.6442 55.6813 16.6442C56.5246 16.6442 57.1019 16.9389 57.3938 17.5237C57.6922 18.1111 57.6987 18.9512 57.4068 20.0448L57.4016 20.0331ZM58.9273 14.2835L58.4914 15.9272C58.3033 15.3378 57.9381 14.8663 57.3984 14.5127C56.8574 14.1656 56.1879 13.9888 55.3894 13.9888C54.4099 13.9888 53.4693 14.2442 52.5676 14.755C51.666 15.2658 50.8746 15.9861 50.2 16.916C49.5253 17.8459 49.0323 18.9002 48.7145 20.0854C48.4031 21.2773 48.3382 22.3185 48.5264 23.2222C48.721 24.1324 49.1296 24.8266 49.7589 25.3111C50.3946 25.8023 51.2054 26.0446 52.1979 26.0446C52.9865 26.0486 53.7663 25.8764 54.4813 25.5403C55.1881 25.2185 55.8169 24.7447 56.3235 24.1521L55.8694 25.8651H59.2361L62.3102 14.2894H58.9371L58.9273 14.2835ZM74.4081 14.2835H64.6176L63.9332 16.8636H69.6299L62.0987 23.4317L61.4552 25.8547H71.5617L72.2461 23.2746H66.142L73.7886 16.6082L74.4081 14.2835ZM83.0259 20.0134C82.7229 21.1529 82.2734 22.0094 81.6799 22.5673C81.0863 23.1305 80.3676 23.4121 79.5236 23.4121C77.7592 23.4121 77.1793 22.2792 77.7813 20.0134C78.0797 18.8871 78.5311 18.0404 79.1344 17.47C79.7377 16.8976 80.4688 16.6121 81.3283 16.6121C82.1716 16.6121 82.7411 16.8957 83.0343 17.4667C83.3275 18.0364 83.3249 18.8858 83.0259 20.0121V20.0134ZM84.9966 14.719C84.2214 14.2318 83.2321 13.9881 82.0256 13.9881C80.8041 13.9881 79.6735 14.2304 78.633 14.715C77.5968 15.1966 76.6862 15.9154 75.9734 16.8145C75.2404 17.7247 74.713 18.7921 74.3893 20.0101C74.0715 21.2236 74.0325 22.289 74.279 23.2012C74.5255 24.1115 75.0445 24.8121 75.8229 25.2967C76.6078 25.7852 77.6068 26.0282 78.8328 26.0282C80.0393 26.0282 81.1616 25.7833 82.193 25.2961C83.2244 24.8063 84.1066 24.1108 84.8396 23.194C85.5726 22.2812 86.098 21.2164 86.4224 19.9984C86.7467 18.7803 86.7856 17.7169 86.5391 16.8027C86.2926 15.8925 85.7802 15.1918 85.0082 14.7039L84.9966 14.719ZM97.0154 17.3757L97.8781 14.2259C97.5862 14.0752 97.2035 13.9967 96.7234 13.9967C95.9515 13.9967 95.212 14.1892 94.4985 14.5795C93.8848 14.9108 93.3633 15.3784 92.9222 15.9638L93.3698 14.2678L92.3922 14.2717H89.9921L86.8978 25.8429H90.3119L91.9173 19.794C92.1509 18.9146 92.5712 18.2224 93.1777 17.7313C93.781 17.2382 94.5335 16.9913 95.4416 16.9913C95.9995 16.9913 96.5185 17.1203 97.0115 17.3776L97.0154 17.3757ZM106.515 20.0691C106.223 21.1496 105.782 21.9747 105.178 22.5444C104.575 23.1167 103.849 23.4023 103.005 23.4023C102.162 23.4023 101.585 23.1141 101.28 22.5379C100.968 21.9583 100.962 21.1234 101.254 20.0259C101.546 18.929 101.993 18.0875 102.61 17.5047C103.226 16.9173 103.952 16.6239 104.796 16.6239C105.626 16.6239 106.184 16.9251 106.482 17.5342C106.781 18.1432 106.787 18.9879 106.5 20.0684L106.515 20.0691ZM108.888 14.738C108.255 14.2272 107.447 13.9718 106.468 13.9718C105.61 13.9718 104.792 14.1682 104.016 14.5651C103.241 14.9613 102.612 15.5015 102.128 16.1852L102.14 16.1066L102.713 14.2665H99.3785L98.5287 17.4687L98.5028 17.58L94.9999 30.7713H98.4184L100.183 24.1311C100.358 24.7218 100.715 25.1854 101.26 25.5207C101.805 25.8547 102.477 26.0203 103.277 26.0203C104.27 26.0203 105.217 25.778 106.115 25.2935C107.017 24.8076 107.795 24.1082 108.457 23.2045C109.118 22.3008 109.61 21.253 109.923 20.0678C110.241 18.8805 110.306 17.8216 110.124 16.895C109.939 15.9671 109.53 15.2487 108.898 14.7406L108.888 14.738ZM120.227 20.0219C119.935 21.1155 119.488 21.9537 118.884 22.53C118.281 23.1102 117.555 23.399 116.711 23.399C115.849 23.399 115.265 23.1174 114.96 22.5477C114.648 21.978 114.642 21.1528 114.927 20.0723C115.213 18.9918 115.668 18.1471 116.297 17.5381C116.927 16.9291 117.663 16.6252 118.507 16.6252C119.351 16.6252 119.922 16.9199 120.22 17.5027C120.518 18.0875 120.52 18.9277 120.23 20.0239L120.227 20.0219ZM121.752 14.2691L121.315 15.9127C121.127 15.3201 120.764 14.8486 120.225 14.4983C119.68 14.1486 119.012 13.9744 118.214 13.9744C117.235 13.9744 116.289 14.2298 115.386 14.7406C114.484 15.2514 113.693 15.9678 113.018 16.895C112.344 17.8223 111.851 18.8792 111.533 20.0645C111.218 21.2544 111.157 22.2975 111.345 23.2051C111.535 24.1088 111.944 24.8069 112.577 25.2941C113.209 25.7787 114.024 26.0236 115.016 26.0236C115.814 26.0236 116.576 25.856 117.3 25.5194C118.005 25.196 118.632 24.7216 119.137 24.1291L118.683 25.8435H122.05L125.123 14.2724H121.757L121.752 14.2691ZM139.258 14.273L139.259 14.2697H137.19C137.124 14.2697 137.066 14.273 137.005 14.2743H135.932L135.38 15.047L135.244 15.2304L135.186 15.3221L130.823 21.4567L129.922 14.273H126.349L128.159 25.1893L124.163 30.7752H127.724L128.69 29.3915C128.718 29.3509 128.742 29.3169 128.775 29.2736L129.904 27.6562L129.936 27.6103L134.991 20.3742L139.253 14.2841L139.259 14.2802H139.258V14.273Z" fill="white"/>
</g>
<defs>
<clipPath id="clip0_623_1055">
<rect width="122.952" height="37.005" fill="white" transform="translate(16.3511 0.00500488)"/>
</clipPath>
</defs>
</svg>
